<svg xmlns="http://www.w3.org/2000/svg" viewBox="0 0 119.98 110.84"><defs><style>.cls-1{isolation:isolate;}.cls-12,.cls-2,.cls-5{opacity:0.5;}.cls-3,.cls-5{fill:#4d4d4d;}.cls-4{fill:#fff;}.cls-12,.cls-6{mix-blend-mode:multiply;}.cls-7{fill:#ffe3ba;}.cls-8{fill:#f79974;}.cls-9{fill:#182b3b;}.cls-10{fill:#1390ba;}.cls-11{fill:#214b71;}.cls-12{fill:#162b35;}.cls-13{fill:#961b20;}.cls-14{fill:#f45157;}.cls-15{fill:#c00a15;}</style></defs><g class="cls-1"><g id="Layer_2" data-name="Layer 2"><g id="Layer_2-2" data-name="Layer 2"><g class="cls-2"><path class="cls-3" d="M85.68,33.55l-6.34-3.66a.21.21,0,0,1-.1-.17v-9a.21.21,0,0,1,.1-.17.21.21,0,0,1,.19,0l6.35,3.66a.22.22,0,0,1,.09.17v9a.21.21,0,0,1-.09.17.18.18,0,0,1-.2,0ZM79.63,21v8.57l6,3.44V24.48Z"/><path class="cls-3" d="M85,32.4l-5-2.9a.18.18,0,0,1-.1-.16V21.86a.18.18,0,0,1,.1-.16.17.17,0,0,1,.19,0l5,2.89a.19.19,0,0,1,.1.16v7.48a.21.21,0,0,1-.1.17l-.1,0ZM80.3,22.2v7l4.62,2.67v-7Z"/><path class="cls-3" d="M85,28.66l-5-2.89a.21.21,0,0,1-.1-.17V21.86a.18.18,0,0,1,.1-.16.17.17,0,0,1,.19,0l5,2.89a.19.19,0,0,1,.1.16v3.74a.21.21,0,0,1-.1.17.16.16,0,0,1-.1,0A.15.15,0,0,1,85,28.66ZM80.3,22.2v3.29l4.62,2.67V24.87Z"/><path class="cls-3" d="M66.88,22.64,60.54,19a.21.21,0,0,1-.1-.17v-9a.19.19,0,0,1,.09-.17.21.21,0,0,1,.19,0l6.35,3.66a.2.2,0,0,1,.09.17v9a.2.2,0,0,1-.09.17l-.1,0Zm-6-12.51V18.7l6,3.44V13.57Z"/><path class="cls-3" d="M66.22,21.48l-5-2.89a.19.19,0,0,1-.1-.17V11a.21.21,0,0,1,.1-.17.21.21,0,0,1,.19,0l5,2.9a.18.18,0,0,1,.1.16v7.48a.18.18,0,0,1-.1.16.17.17,0,0,1-.1,0A.16.16,0,0,1,66.22,21.48ZM61.5,11.28v7L66.12,21V14Z"/><path class="cls-3" d="M66.22,17.75l-5-2.9a.18.18,0,0,1-.1-.16V11a.21.21,0,0,1,.1-.17.21.21,0,0,1,.19,0l5,2.9a.18.18,0,0,1,.1.16v3.74a.21.21,0,0,1-.1.17l-.1,0ZM61.5,11.28v3.3l4.62,2.67V14Z"/><path class="cls-3" d="M85.68,46.69,79.34,43a.21.21,0,0,1-.1-.17v-9a.19.19,0,0,1,.1-.17.17.17,0,0,1,.19,0l6.35,3.66a.22.22,0,0,1,.09.17v9a.22.22,0,0,1-.09.17l-.1,0ZM79.63,34.18v8.57l6,3.44V37.62Z"/><path class="cls-3" d="M85,45.53l-5-2.89a.19.19,0,0,1-.1-.17V35a.21.21,0,0,1,.1-.17.21.21,0,0,1,.19,0l5,2.9a.18.18,0,0,1,.1.16v7.48a.18.18,0,0,1-.1.16.17.17,0,0,1-.1,0ZM80.3,35.33v7L84.92,45V38Z"/><path class="cls-3" d="M85,41.8l-5-2.9a.18.18,0,0,1-.1-.16V35a.21.21,0,0,1,.1-.17.21.21,0,0,1,.19,0l5,2.9a.18.18,0,0,1,.1.16v3.74a.21.21,0,0,1-.1.17l-.1,0ZM80.3,35.33v3.3l4.62,2.67V38Z"/><path class="cls-3" d="M66.88,35.78l-6.34-3.67a.18.18,0,0,1-.1-.16v-9a.17.17,0,0,1,.09-.16.17.17,0,0,1,.19,0l6.35,3.66a.19.19,0,0,1,.09.17v9a.2.2,0,0,1-.09.17l-.1,0Zm-6-12.51v8.57l6,3.44V26.71Z"/><path class="cls-3" d="M66.22,34.62l-5-2.89a.21.21,0,0,1-.1-.17V24.09a.21.21,0,0,1,.1-.17.21.21,0,0,1,.19,0l5,2.89a.21.21,0,0,1,.1.17v7.47a.19.19,0,0,1-.1.17.17.17,0,0,1-.1,0A.16.16,0,0,1,66.22,34.62ZM61.5,24.42v7l4.62,2.67v-7Z"/><path class="cls-3" d="M66.22,30.88l-5-2.89a.19.19,0,0,1-.1-.17V24.09a.21.21,0,0,1,.1-.17.21.21,0,0,1,.19,0l5,2.89a.21.21,0,0,1,.1.17v3.74a.18.18,0,0,1-.1.16.17.17,0,0,1-.1,0A.16.16,0,0,1,66.22,30.88ZM61.5,24.42v3.29l4.62,2.67V27.09Z"/></g><g class="cls-2"><path class="cls-4" d="M93.67,53.79,54.15,31Z"/><rect class="cls-3" x="73.72" y="19.57" width="0.38" height="45.63" transform="translate(0.26 85.21) rotate(-60.01)"/></g><rect class="cls-5" x="75.38" y="-9.96" width="0.38" height="45.63" transform="translate(26.65 71.88) rotate(-60)"/><rect class="cls-5" x="73.72" y="23.86" width="0.38" height="45.63" transform="translate(-3.46 87.36) rotate(-60.01)"/><g class="cls-2"><path class="cls-3" d="M.1,33.73a.21.21,0,0,1-.1-.17V32.31a.19.19,0,0,1,.05-.13L27.86,2A.24.24,0,0,1,28,1.9L55.81,0A.24.24,0,0,1,56,.05.2.2,0,0,1,56,.19V1.45a.19.19,0,0,1-.09.16L.29,33.73a.16.16,0,0,1-.1,0A.15.15,0,0,1,.1,33.73ZM55.63.4,28.1,2.28.38,32.38v.85L55.63,1.34Z"/><polygon class="cls-4" points="1.86 65.46 54.15 35.27 54.15 2.41 28.01 4.2 1.86 32.6 1.86 65.46"/><path class="cls-3" d="M1.76,65.63a.19.19,0,0,1-.09-.17V32.6a.17.17,0,0,1,.05-.13L27.86,4.07A.18.18,0,0,1,28,4L54.14,2.22a.15.15,0,0,1,.14,0,.17.17,0,0,1,.07.14V35.27a.21.21,0,0,1-.1.17L2,65.63a.16.16,0,0,1-.09,0A.19.19,0,0,1,1.76,65.63ZM54,2.61,28.1,4.38l-26,28.3V65.13L54,35.16Z"/><path class="cls-3" d="M1.76,65.63a.19.19,0,0,1-.09-.17V61.17A.2.2,0,0,1,1.76,61l52.3-30.19a.17.17,0,0,1,.19,0,.19.19,0,0,1,.1.17v4.29a.21.21,0,0,1-.1.17L2,65.63a.16.16,0,0,1-.09,0A.19.19,0,0,1,1.76,65.63ZM54,31.31l-51.91,30v3.85L54,35.16Z"/><polygon class="cls-4" points="24.84 52.2 31.18 48.54 31.18 33.66 24.84 37.32 24.84 52.2"/><path class="cls-3" d="M24.74,52.37a.21.21,0,0,1-.1-.17V37.32a.21.21,0,0,1,.1-.17l6.34-3.66a.21.21,0,0,1,.19,0,.19.19,0,0,1,.1.17V48.54a.18.18,0,0,1-.1.16l-6.34,3.67-.09,0ZM31,34l-6,3.44V51.87l6-3.44Z"/><path class="cls-4" d="M26.6,12.5l2.81-1.62V9.25c0-.89-.63-1.26-1.4-.81a3.11,3.11,0,0,0-1.41,2.44Z"/><path class="cls-3" d="M26.5,12.67a.2.2,0,0,1-.09-.17V10.88a3.29,3.29,0,0,1,1.5-2.61,1,1,0,0,1,1.69,1v1.63a.17.17,0,0,1-.09.16L26.7,12.67l-.1,0Zm2.72-3.42a.8.8,0,0,0-.32-.74.81.81,0,0,0-.8.1,2.89,2.89,0,0,0-1.31,2.27v1.29l2.43-1.4Z"/><rect class="cls-3" x="-2.19" y="30.72" width="60.39" height="0.38" transform="translate(-11.7 18.14) rotate(-30)"/><path class="cls-3" d="M41.16,35.44a.18.18,0,0,1-.1-.16v-9a.19.19,0,0,1,.1-.16l6.34-3.66a.17.17,0,0,1,.19,0,.18.18,0,0,1,.1.16v9a.19.19,0,0,1-.1.16l-6.34,3.66a.16.16,0,0,1-.09,0A.17.17,0,0,1,41.16,35.44Zm6.25-12.5-6,3.44v8.56l6-3.43Z"/><path class="cls-3" d="M41.83,34.29a.19.19,0,0,1-.1-.17V26.65a.21.21,0,0,1,.1-.17l5-2.89a.21.21,0,0,1,.19,0,.19.19,0,0,1,.09.17v7.47a.2.2,0,0,1-.09.17l-5,2.89a.17.17,0,0,1-.1,0A.16.16,0,0,1,41.83,34.29Zm4.91-10.2-4.63,2.67v7l4.63-2.67Z"/><path class="cls-3" d="M41.83,30.55a.18.18,0,0,1-.1-.16V26.65a.21.21,0,0,1,.1-.17l5-2.89a.21.21,0,0,1,.19,0,.19.19,0,0,1,.09.17v3.73a.19.19,0,0,1-.09.17l-5,2.89a.17.17,0,0,1-.1,0A.16.16,0,0,1,41.83,30.55Zm4.91-6.46-4.63,2.67v3.29l4.63-2.67Z"/><path class="cls-3" d="M41.16,20.44a.18.18,0,0,1-.1-.16v-9a.19.19,0,0,1,.1-.16L47.5,7.44a.17.17,0,0,1,.19,0,.18.18,0,0,1,.1.16v9a.19.19,0,0,1-.1.16l-6.34,3.66a.16.16,0,0,1-.09,0A.17.17,0,0,1,41.16,20.44Zm6.25-12.5-6,3.44v8.56l6-3.44Z"/><path class="cls-3" d="M41.83,19.29a.19.19,0,0,1-.1-.17V11.65a.21.21,0,0,1,.1-.17l5-2.89a.21.21,0,0,1,.19,0,.19.19,0,0,1,.09.17v7.47a.2.2,0,0,1-.09.17l-5,2.89a.17.17,0,0,1-.1,0A.16.16,0,0,1,41.83,19.29Zm4.91-10.2-4.63,2.67v7l4.63-2.67Z"/><path class="cls-3" d="M41.83,15.55a.18.18,0,0,1-.1-.16V11.65a.21.21,0,0,1,.1-.17l5-2.89a.21.21,0,0,1,.19,0,.19.19,0,0,1,.09.17v3.73a.19.19,0,0,1-.09.17l-5,2.89a.17.17,0,0,1-.1,0Zm4.91-6.46-4.63,2.67v3.29l4.63-2.67Z"/><rect class="cls-3" x="15.84" y="22.7" width="38.36" height="0.38" transform="translate(11.98 57.81) rotate(-89.75)"/><path class="cls-3" d="M8.32,54.41a.21.21,0,0,1-.1-.17v-9a.19.19,0,0,1,.1-.17l6.34-3.66a.17.17,0,0,1,.19,0,.19.19,0,0,1,.1.16v9a.18.18,0,0,1-.1.16L8.51,54.41l-.1,0ZM14.56,41.9l-6,3.44v8.57l6-3.44Z"/><path class="cls-3" d="M9,53.25a.18.18,0,0,1-.09-.16V45.61A.2.2,0,0,1,9,45.44l5-2.89a.23.23,0,0,1,.2,0,.2.2,0,0,1,.09.17v7.47a.2.2,0,0,1-.09.17l-5,2.89a.18.18,0,0,1-.2,0Zm4.92-10.2L9.27,45.72v7l4.63-2.67Z"/><path class="cls-3" d="M9,49.51a.17.17,0,0,1-.09-.16V45.61A.2.2,0,0,1,9,45.44l5-2.89a.23.23,0,0,1,.2,0,.2.2,0,0,1,.09.17v3.74a.18.18,0,0,1-.09.16l-5,2.89a.18.18,0,0,1-.2,0Zm4.92-6.46L9.27,45.72V49l4.63-2.67Z"/><path class="cls-3" d="M8.32,39.41a.21.21,0,0,1-.1-.17v-9a.19.19,0,0,1,.1-.17l6.34-3.66a.17.17,0,0,1,.19,0,.19.19,0,0,1,.1.16v9a.18.18,0,0,1-.1.16L8.51,39.41l-.1,0ZM14.56,26.9l-6,3.44v8.57l6-3.44Z"/><path class="cls-3" d="M9,38.25a.19.19,0,0,1-.09-.17V30.61A.2.2,0,0,1,9,30.44l5-2.89a.23.23,0,0,1,.2,0,.2.2,0,0,1,.09.17v7.47a.2.2,0,0,1-.09.17l-5,2.89a.18.18,0,0,1-.2,0Zm4.92-10.2L9.27,30.72v7l4.63-2.67Z"/><path class="cls-3" d="M9,34.51a.17.17,0,0,1-.09-.16V30.61A.2.2,0,0,1,9,30.44l5-2.89a.23.23,0,0,1,.2,0,.2.2,0,0,1,.09.17v3.74a.18.18,0,0,1-.09.16l-5,2.89a.18.18,0,0,1-.2,0Zm4.92-6.46L9.27,30.72V34l4.63-2.67Z"/><rect class="cls-3" x="20.8" y="11.91" width="0.38" height="38.16" transform="translate(-0.15 0.1) rotate(-0.28)"/><path class="cls-3" d="M24.74,29.92a.18.18,0,0,1-.1-.16v-9a.19.19,0,0,1,.1-.17l6.34-3.66a.17.17,0,0,1,.19,0,.18.18,0,0,1,.1.16v9a.18.18,0,0,1-.1.16l-6.34,3.66a.17.17,0,0,1-.1,0A.16.16,0,0,1,24.74,29.92ZM31,17.42,25,20.86v8.57L31,26Z"/><path class="cls-3" d="M25.4,28.77a.21.21,0,0,1-.09-.17V21.13A.22.22,0,0,1,25.4,21l5-2.89a.23.23,0,0,1,.2,0,.2.2,0,0,1,.09.17v7.47a.2.2,0,0,1-.09.17l-5,2.89a.18.18,0,0,1-.2,0Zm4.92-10.2-4.63,2.67v7l4.63-2.67Z"/><path class="cls-3" d="M25.4,25a.19.19,0,0,1-.09-.16V21.13A.22.22,0,0,1,25.4,21l5-2.89a.23.23,0,0,1,.2,0,.2.2,0,0,1,.09.17V22a.19.19,0,0,1-.09.17L25.6,25a.18.18,0,0,1-.2,0Zm4.92-6.46-4.63,2.67v3.29l4.63-2.67Z"/><polygon class="cls-4" points="25.63 51.74 30.38 48.99 30.38 35.18 25.63 37.92 25.63 51.74"/><path class="cls-3" d="M25.53,51.91a.2.2,0,0,1-.09-.17V37.93a.19.19,0,0,1,.09-.17L30.29,35a.21.21,0,0,1,.19,0,.21.21,0,0,1,.1.17V49a.19.19,0,0,1-.1.16l-4.76,2.75-.09,0Zm4.66-16.4L25.82,38V51.41l4.37-2.53Z"/></g><g class="cls-6"><path class="cls-3" d="M39.61,56.54a.18.18,0,0,1-.09-.16V55.12a.17.17,0,0,1,0-.13L67.38,24.78a.16.16,0,0,1,.13-.06l27.81-1.91a.2.2,0,0,1,.15.06.17.17,0,0,1,.06.14v1.25a.21.21,0,0,1-.1.17L39.8,56.54a.16.16,0,0,1-.09,0A.19.19,0,0,1,39.61,56.54ZM95.14,23.21,67.61,25.1,39.9,55.2V56L95.14,24.15Z"/><polygon class="cls-4" points="41.37 88.28 93.67 58.09 93.67 25.22 67.52 27.01 41.37 55.41 41.37 88.28"/><path class="cls-3" d="M41.28,88.45a.21.21,0,0,1-.1-.17V55.41a.24.24,0,0,1,0-.13l26.15-28.4a.2.2,0,0,1,.13-.06L93.66,25a.24.24,0,0,1,.14,0,.2.2,0,0,1,.06.14V58.09a.17.17,0,0,1-.09.16l-52.3,30.2-.1,0Zm52.2-63L67.61,27.2l-26,28.29V88L93.48,58Z"/><path class="cls-3" d="M41.28,88.45a.21.21,0,0,1-.1-.17V84a.18.18,0,0,1,.1-.16l52.29-30.2a.23.23,0,0,1,.2,0,.2.2,0,0,1,.09.17v4.3a.17.17,0,0,1-.09.16l-52.3,30.2-.1,0Zm52.2-34.33-51.91,30V88L93.48,58Z"/><polygon class="cls-4" points="64.35 75.01 70.69 71.35 70.69 56.47 64.35 60.13 64.35 75.01"/><path class="cls-3" d="M64.25,75.18a.21.21,0,0,1-.09-.17V60.13a.19.19,0,0,1,.09-.16L70.6,56.3a.21.21,0,0,1,.19,0,.21.21,0,0,1,.1.17V71.35a.21.21,0,0,1-.1.17l-6.34,3.66a.18.18,0,0,1-.2,0ZM70.5,56.8l-6,3.44V74.68l6-3.44Z"/><path class="cls-4" d="M66.12,35.31l2.81-1.62V32.07c0-.9-.63-1.26-1.41-.81a3.09,3.09,0,0,0-1.4,2.43Z"/><path class="cls-3" d="M66,35.48a.19.19,0,0,1-.1-.17V33.69a3.27,3.27,0,0,1,1.51-2.6,1,1,0,0,1,1.69,1v1.62a.21.21,0,0,1-.1.17l-2.81,1.62a.16.16,0,0,1-.09,0A.17.17,0,0,1,66,35.48Zm2.72-3.41a.67.67,0,0,0-1.12-.65,2.92,2.92,0,0,0-1.31,2.27V35l2.43-1.4Z"/><rect class="cls-3" x="37.33" y="53.54" width="60.39" height="0.38" transform="translate(-17.82 40.96) rotate(-30)"/><path class="cls-3" d="M80.68,58.26a.21.21,0,0,1-.1-.17v-9a.21.21,0,0,1,.1-.17L87,45.25a.21.21,0,0,1,.19,0,.21.21,0,0,1,.1.17v9a.21.21,0,0,1-.1.17l-6.34,3.66a.16.16,0,0,1-.1,0A.15.15,0,0,1,80.68,58.26Zm6.24-12.51-6,3.44v8.57l6-3.44Z"/><path class="cls-3" d="M81.34,57.11a.2.2,0,0,1-.09-.17V49.46a.18.18,0,0,1,.09-.16l5-2.9a.21.21,0,0,1,.19,0,.21.21,0,0,1,.1.17v7.48a.19.19,0,0,1-.1.16l-5,2.9-.09,0ZM86.26,46.9l-4.63,2.67v7l4.63-2.67Z"/><path class="cls-3" d="M81.34,53.37a.2.2,0,0,1-.09-.17V49.46a.18.18,0,0,1,.09-.16l5-2.9a.21.21,0,0,1,.19,0,.21.21,0,0,1,.1.17v3.74a.21.21,0,0,1-.1.17l-5,2.89-.09,0Zm4.92-6.47-4.63,2.67v3.3l4.63-2.67Z"/><path class="cls-3" d="M80.68,43.26a.21.21,0,0,1-.1-.17v-9a.21.21,0,0,1,.1-.17L87,30.25a.21.21,0,0,1,.19,0,.21.21,0,0,1,.1.17v9a.21.21,0,0,1-.1.17l-6.34,3.66a.18.18,0,0,1-.1,0A.15.15,0,0,1,80.68,43.26Zm6.24-12.51-6,3.44v8.57l6-3.44Z"/><path class="cls-3" d="M81.34,42.1a.17.17,0,0,1-.09-.16V34.46a.18.18,0,0,1,.09-.16l5-2.9a.21.21,0,0,1,.19,0,.21.21,0,0,1,.1.17v7.48a.19.19,0,0,1-.1.16l-5,2.89-.09,0A.17.17,0,0,1,81.34,42.1Zm4.92-10.2-4.63,2.67v7l4.63-2.68Z"/><path class="cls-3" d="M81.34,38.37a.2.2,0,0,1-.09-.17V34.46a.18.18,0,0,1,.09-.16l5-2.9a.21.21,0,0,1,.19,0,.21.21,0,0,1,.1.17v3.74a.21.21,0,0,1-.1.17l-5,2.89-.09,0Zm4.92-6.47-4.63,2.67v3.3l4.63-2.67Z"/><rect class="cls-3" x="55.36" y="45.51" width="38.36" height="0.38" transform="translate(28.5 120.04) rotate(-89.75)"/><path class="cls-3" d="M47.83,77.22a.19.19,0,0,1-.09-.17V68a.2.2,0,0,1,.09-.17l6.35-3.66a.21.21,0,0,1,.19,0,.2.2,0,0,1,.09.17v9a.2.2,0,0,1-.09.17L48,77.22a.18.18,0,0,1-.2,0Zm6.25-12.51-6,3.44v8.57l6-3.44Z"/><path class="cls-3" d="M48.5,76.07a.21.21,0,0,1-.1-.17V68.43a.19.19,0,0,1,.1-.17l5-2.89a.17.17,0,0,1,.19,0,.18.18,0,0,1,.1.16V73a.18.18,0,0,1-.1.16l-5,2.9-.09,0Zm4.91-10.2-4.62,2.67v7l4.62-2.67Z"/><path class="cls-3" d="M48.5,72.33a.21.21,0,0,1-.1-.17V68.43a.19.19,0,0,1,.1-.17l5-2.89a.17.17,0,0,1,.19,0,.18.18,0,0,1,.1.16v3.74a.21.21,0,0,1-.1.17l-5,2.89a.15.15,0,0,1-.09,0A.16.16,0,0,1,48.5,72.33Zm4.91-6.46-4.62,2.67v3.29l4.62-2.67Z"/><path class="cls-3" d="M47.83,62.22a.19.19,0,0,1-.09-.17V53a.2.2,0,0,1,.09-.17l6.35-3.66a.21.21,0,0,1,.19,0,.2.2,0,0,1,.09.17v9a.2.2,0,0,1-.09.17L48,62.22a.18.18,0,0,1-.2,0Zm6.25-12.51-6,3.44v8.57l6-3.44Z"/><path class="cls-3" d="M48.5,61.07a.21.21,0,0,1-.1-.17V53.42a.19.19,0,0,1,.1-.16l5-2.89a.17.17,0,0,1,.19,0,.18.18,0,0,1,.1.16V58a.18.18,0,0,1-.1.16l-5,2.9-.09,0Zm4.91-10.2-4.62,2.67v7l4.62-2.67Z"/><path class="cls-3" d="M48.5,57.33a.21.21,0,0,1-.1-.17V53.42a.19.19,0,0,1,.1-.16l5-2.89a.17.17,0,0,1,.19,0,.18.18,0,0,1,.1.16v3.74a.21.21,0,0,1-.1.17l-5,2.89a.15.15,0,0,1-.09,0A.16.16,0,0,1,48.5,57.33Zm4.91-6.46-4.62,2.67v3.29l4.62-2.67Z"/><rect class="cls-3" x="60.31" y="34.73" width="0.38" height="38.16" transform="translate(-0.21 0.24) rotate(-0.22)"/><path class="cls-3" d="M64.25,52.74a.2.2,0,0,1-.09-.17v-9a.2.2,0,0,1,.09-.17l6.35-3.66a.21.21,0,0,1,.19,0,.21.21,0,0,1,.1.17v9a.21.21,0,0,1-.1.17l-6.34,3.66a.26.26,0,0,1-.2,0ZM70.5,40.23l-6,3.44v8.57l6-3.44Z"/><path class="cls-3" d="M64.92,51.59a.21.21,0,0,1-.1-.17V43.94a.19.19,0,0,1,.1-.16l5-2.89a.17.17,0,0,1,.19,0,.18.18,0,0,1,.1.16v7.48a.18.18,0,0,1-.1.16l-5,2.9-.09,0Zm4.91-10.21-4.62,2.68v7l4.62-2.67Z"/><path class="cls-3" d="M64.92,47.85a.21.21,0,0,1-.1-.17V43.94a.19.19,0,0,1,.1-.16l5-2.89a.17.17,0,0,1,.19,0,.18.18,0,0,1,.1.16v3.74a.21.21,0,0,1-.1.17l-5,2.89a.15.15,0,0,1-.09,0A.16.16,0,0,1,64.92,47.85Zm4.91-6.47-4.62,2.68v3.29l4.62-2.67Z"/><polygon class="cls-4" points="65.14 74.56 69.9 71.81 69.9 57.99 65.14 60.74 65.14 74.56"/><path class="cls-3" d="M65.05,74.72a.19.19,0,0,1-.1-.16V60.74a.21.21,0,0,1,.1-.17l4.75-2.74a.18.18,0,0,1,.2,0,.2.2,0,0,1,.09.16V71.81A.2.2,0,0,1,70,72l-4.76,2.74a.17.17,0,0,1-.1,0A.16.16,0,0,1,65.05,74.72Zm4.66-16.39-4.37,2.52V74.22l4.37-2.52Z"/></g><rect class="cls-3" x="21.42" y="54.06" width="0.38" height="45.63" transform="translate(-55.76 57.13) rotate(-59.98)"/><rect class="cls-3" x="19.76" y="22.15" width="0.38" height="45.63" transform="translate(-28.97 39.76) rotate(-60)"/><rect class="cls-3" x="19.76" y="20.9" width="0.38" height="45.63" transform="translate(-27.88 39.14) rotate(-60)"/><rect class="cls-3" x="47.57" y="-9.31" width="0.38" height="45.63" transform="translate(12.19 48.12) rotate(-60.01)"/><rect class="cls-3" x="75.38" y="-11.22" width="0.38" height="45.63" transform="translate(27.74 71.25) rotate(-60)"/><rect class="cls-3" x="21.42" y="49.76" width="0.38" height="45.63" transform="translate(-52.04 54.98) rotate(-59.98)"/><path class="cls-3" d="M65.5,15.59a.18.18,0,0,1,.09-.22l6.72-3.88a.21.21,0,0,1,.19,0,.19.19,0,0,1,.1.17v3.42a.19.19,0,0,1-.18.19l-6.72.46A.2.2,0,0,1,65.5,15.59ZM72.21,12l-5.71,3.3,5.71-.39Z"/><path class="cls-3" d="M33.15,37.88A.18.18,0,0,1,33,37.7V34.28a.2.2,0,0,1,.09-.17l6.72-3.88a.2.2,0,0,1,.25.05.2.2,0,0,1,0,.25l-6.72,7.3a.2.2,0,0,1-.14.06Zm.26-3.49v2.82l5.53-6Z"/><path class="cls-3" d="M57.62,11.07l.09,0,6.72-3.88a.19.19,0,0,0,.07-.27.19.19,0,0,0-.26-.07l-6.72,3.88a.21.21,0,0,0-.07.27A.2.2,0,0,0,57.62,11.07Z"/><path class="cls-5" d="M57.63,11.07l6.72-.46a.19.19,0,0,0,.18-.19V7h-.39v3.24l-6.54.45Z"/><path class="cls-3" d="M25,33h.38V29.73L32,25.91l-.19-.33-6.72,3.88a.18.18,0,0,0-.1.16Z"/><path class="cls-5" d="M25.15,33.23a.18.18,0,0,0,.14-.06L32,25.87a.18.18,0,0,0,0-.27.19.19,0,0,0-.27,0L25,32.91a.19.19,0,0,0,0,.27A.18.18,0,0,0,25.15,33.23Z"/><rect class="cls-3" x="28.99" y="27.29" width="0.38" height="9.31" transform="translate(-13.08 41.26) rotate(-60.01)"/><path class="cls-3" d="M39.94,30.59a.18.18,0,0,0,.16-.09.19.19,0,0,0-.07-.27L32,25.58a.19.19,0,0,0-.19.33l8.06,4.66Z"/><rect class="cls-3" x="28.99" y="30.71" width="0.38" height="9.31" transform="translate(-16.04 42.97) rotate(-60.01)"/><path class="cls-3" d="M72.4,11.85a.21.21,0,0,0,.17-.1.19.19,0,0,0-.07-.26L64.43,6.83a.19.19,0,0,0-.26.07.21.21,0,0,0,.07.27l8.07,4.65Z"/><rect class="cls-3" x="61.46" y="8.55" width="0.38" height="9.31" transform="translate(19.39 60) rotate(-60)"/><rect class="cls-5" x="68.18" y="8.09" width="0.38" height="9.31" transform="translate(23.16 65.59) rotate(-60.01)"/><path class="cls-3" d="M33.46,63.7,27.12,60a.21.21,0,0,1-.1-.17v-9a.21.21,0,0,1,.1-.17.21.21,0,0,1,.19,0l6.34,3.66a.21.21,0,0,1,.1.17v9a.19.19,0,0,1-.1.17.17.17,0,0,1-.1,0ZM27.4,51.19v8.57l6,3.44V54.63Z"/><path class="cls-3" d="M32.79,62.55l-5-2.9a.17.17,0,0,1-.09-.16V52a.17.17,0,0,1,.09-.16.18.18,0,0,1,.2,0l5,2.89a.21.21,0,0,1,.09.17v7.47a.22.22,0,0,1-.09.17l-.1,0Zm-4.72-10.2v7l4.63,2.67V55Z"/><path class="cls-3" d="M32.79,58.81l-5-2.89a.2.2,0,0,1-.09-.17V52a.17.17,0,0,1,.09-.16.18.18,0,0,1,.2,0l5,2.89a.21.21,0,0,1,.09.17v3.73a.21.21,0,0,1-.09.17.18.18,0,0,1-.2,0Zm-4.72-6.46v3.29l4.63,2.67V55Z"/><path class="cls-3" d="M14.66,52.79,8.32,49.13a.21.21,0,0,1-.1-.17V40a.21.21,0,0,1,.1-.17.21.21,0,0,1,.19,0l6.34,3.66a.21.21,0,0,1,.1.17v9a.21.21,0,0,1-.1.17.15.15,0,0,1-.09,0A.16.16,0,0,1,14.66,52.79ZM8.61,40.28v8.57l6,3.44V43.72Z"/><path class="cls-3" d="M14,51.64l-5-2.9a.18.18,0,0,1-.09-.16V41.1A.2.2,0,0,1,9,40.93a.23.23,0,0,1,.2,0l5,2.9a.18.18,0,0,1,.09.16v7.48a.2.2,0,0,1-.09.17l-.1,0ZM9.27,41.43v7l4.63,2.67v-7Z"/><path class="cls-3" d="M14,47.9,9,45a.2.2,0,0,1-.09-.17V41.1A.2.2,0,0,1,9,40.93a.23.23,0,0,1,.2,0l5,2.9a.18.18,0,0,1,.09.16v3.74a.2.2,0,0,1-.09.17.26.26,0,0,1-.2,0ZM9.27,41.43v3.3L13.9,47.4V44.1Z"/><path class="cls-3" d="M33.46,76.84l-6.34-3.66A.21.21,0,0,1,27,73V64a.19.19,0,0,1,.1-.17.21.21,0,0,1,.19,0l6.34,3.66a.21.21,0,0,1,.1.17v9a.21.21,0,0,1-.1.17.16.16,0,0,1-.1,0A.15.15,0,0,1,33.46,76.84ZM27.4,64.33V72.9l6,3.44V67.77Z"/><path class="cls-3" d="M32.79,75.68l-5-2.89a.18.18,0,0,1-.09-.16V65.15a.2.2,0,0,1,.09-.17.23.23,0,0,1,.2,0l5,2.9a.19.19,0,0,1,.09.16v7.48a.19.19,0,0,1-.09.16.18.18,0,0,1-.2,0Zm-4.72-10.2v7l4.63,2.68v-7Z"/><path class="cls-3" d="M32.79,72l-5-2.89a.2.2,0,0,1-.09-.17V65.15a.2.2,0,0,1,.09-.17.23.23,0,0,1,.2,0l5,2.9a.19.19,0,0,1,.09.16v3.74A.22.22,0,0,1,33,72l-.1,0Zm-4.72-6.47v3.3l4.63,2.67v-3.3Z"/><path class="cls-3" d="M14.66,65.93,8.32,62.26a.18.18,0,0,1-.1-.16v-9a.19.19,0,0,1,.1-.17.17.17,0,0,1,.19,0l6.34,3.66a.19.19,0,0,1,.1.17v9a.21.21,0,0,1-.1.17l-.09,0ZM8.61,53.42V62l6,3.44V56.86Z"/><path class="cls-3" d="M14,64.77,9,61.88a.19.19,0,0,1-.09-.17V54.24A.2.2,0,0,1,9,54.07a.23.23,0,0,1,.2,0l5,2.9a.17.17,0,0,1,.09.16v7.48a.18.18,0,0,1-.09.16.18.18,0,0,1-.2,0ZM9.27,54.57v7l4.63,2.67v-7Z"/><path class="cls-3" d="M14,61l-5-2.9A.17.17,0,0,1,8.89,58V54.24A.2.2,0,0,1,9,54.07a.23.23,0,0,1,.2,0l5,2.9a.17.17,0,0,1,.09.16v3.74a.2.2,0,0,1-.09.17l-.1,0ZM9.27,54.57v3.3l4.63,2.67v-3.3Z"/><path class="cls-7" d="M78.25,26.55l5.44,6.08-4,4.09-2.19-2.4-.76-7a3.34,3.34,0,0,1,.88-.65A3.66,3.66,0,0,0,78.25,26.55Z"/><path d="M78.25,26.55a3.66,3.66,0,0,1-.66.1,3.34,3.34,0,0,0-.88.65l-.3-2.8Z"/><polygon class="cls-8" points="89.56 45.2 92.48 46.41 94.54 46.2 94.5 48.7 92.01 48.76 90.11 49.32 88.37 45.1 89.56 45.2"/><path d="M106,108.66s-.18,1.44,2.79,1.8a13.65,13.65,0,0,0,4.47,0s2.26.73,3.53.17.93-1,.93-1a10.55,10.55,0,0,0-1.31-4.5L113,103.9l-.5,2.32-2.57.93S106.35,107.37,106,108.66Z"/><path d="M110.44,91.49V98a4,4,0,0,1-.51,0c-1.7-.2-1.85-1.05-3-1.3s-1.11,0-4.18-.37-3.63-2.17-2.3-2.9,4.06-.53,4.06-.53l1.47-.4,1-.27.77-1.75,1,.38Z"/><path class="cls-9" d="M113.15,74.88,113,79l.74,14.62a28.33,28.33,0,0,1-3.26.11,5.57,5.57,0,0,1-1.88-.5l-.48-.25a7.05,7.05,0,0,1-1.11-.82c-1.38-4.92-1.3-10.07-2.43-17.25a3.4,3.4,0,0,1,.17-1.73l.79-2.13,2.8-7.52L112,64.8l3.13,1.07,1.29.45Z"/><path class="cls-10" d="M108.39,68.51s-3.29,10.58-1.51,18.94c0,0,3.2,12.18,4.48,17.33a3.11,3.11,0,0,0,3,2.35A10.43,10.43,0,0,0,116,107a2.17,2.17,0,0,0,1.78-2.23c-.1-3.31-.61-11.43-3.24-17.92L117.19,74c2.12-2.08,3.2-4.89,1.6-9.6Z"/><path class="cls-11" d="M92.18,46.31A3.43,3.43,0,0,0,93,49a57.61,57.61,0,0,0,12.19,0l7.17-6.09-3.44-3.11-5.26,4.72Z"/><path class="cls-11" d="M113,70.08c2.46-.41,6.57-2.18,7-6l-.48-1.25c-1.42-3.7-2.4-10.89-1.69-14.34s-2.31-11.66-8.08-9.24a11.59,11.59,0,0,0-4.72,5,33.88,33.88,0,0,0,0,12.89V67.84c0,.15,0,.31,0,.48C105.1,72.13,110.59,70.67,113,70.08Z"/><path class="cls-9" d="M104.48,52.87a24.55,24.55,0,0,1,1.2-7.87l4.06-5.13-5,3.89C104.34,47.3,104,51.16,104.48,52.87Z"/><path class="cls-8" d="M106.84,43.59l-1.37-3.81,5-2.26,1.13,2.26C112,41.22,107.4,44.54,106.84,43.59Z"/><path class="cls-8" d="M106.8,40.64l-2.11-.49a1.5,1.5,0,0,1-1-.88,13.84,13.84,0,0,1-.7-5.55c.29-2.84,3.4-3.6,5.26-3.1A4.72,4.72,0,0,1,111.94,35a6.84,6.84,0,0,1-1.64,4.4Z"/><path d="M102.89,34.64a4.61,4.61,0,0,0,1.6,1.56.91.91,0,0,1,.43.58l.23.88.89.78.15.52a1.23,1.23,0,0,0,1.08.89,6.64,6.64,0,0,0,3.81-1.05s2.24-3,.51-6a5.35,5.35,0,0,0-6.12-2.32C104.37,30.82,101.61,32.42,102.89,34.64Z"/><path class="cls-8" d="M106.09,37a1,1,0,0,1,.12.39,3.34,3.34,0,0,1,0,1.18A.91.91,0,0,1,106,39a.39.39,0,0,1-.41.17c-.2-.05-.3-.27-.36-.48a2.68,2.68,0,0,1-.16-1.4C105.23,36.83,105.8,36.45,106.09,37Z"/><path class="cls-12" d="M113,74.72l-.11.21-3.49,6.47-.66,9.39-.16,2.3-.45-.11L106,92.43l1-.27c-1.38-4.92-1.3-10.07-2.43-17.25a3.4,3.4,0,0,1,.17-1.73l.79-2.13a11.72,11.72,0,0,1-.49-3.21v-2l7.33-12.37L112,64.8l0,.87.15,1.39Z"/><g class="cls-1"><polygon class="cls-13" points="106.87 84.25 83.69 32.63 82.17 31.29 105.35 82.91 106.87 84.25"/><polygon class="cls-14" points="105.35 82.91 82.17 31.29 79.06 32.13 102.24 83.75 105.35 82.91"/><polygon class="cls-15" points="102.24 83.75 79.06 32.13 77.47 34.32 100.66 85.94 102.24 83.75"/><polygon class="cls-7" points="106.87 84.25 105.35 82.91 102.24 83.75 100.66 85.94 102.18 87.28 105.29 86.43 106.87 84.25"/></g><path class="cls-8" d="M100.7,69c-.1,0-1.93,2.23-1.93,2.23l-1.9,1.47L95.3,74.53s-.37,1.47.39,2c.26.39.39,1,.79.86l.1.48c.13.47.85,1.16.8.73l-.15-.75,2-1.55a3.48,3.48,0,0,0,.54-1.21l.25-1,.63-1.21.87-2.66Z"/><path class="cls-11" d="M106.25,52.15l-1,8.44c-1.71,3.37-4.38,6.93-6.44,10.63l2.26,2c2.93-2.15,6-5.84,9.14-9.75l2.17-10C114,47.2,107,47.62,106.25,52.15Z"/><path class="cls-8" d="M88.46,44.57l.85.17a17.4,17.4,0,0,0,1.48,1l-.24.54.16.32-.43.74L89.54,46c-.53-.5-.47-.64-1-.79C87.76,45,87.82,44.08,88.46,44.57Z"/></g></g></g></svg>