<svg xmlns="http://www.w3.org/2000/svg" viewBox="0 0 78.09 105.74"><defs><style>.cls-1{isolation:isolate;}.cls-2{fill:#10304d;}.cls-3{fill:#214b71;}.cls-4{fill:#162b35;}.cls-17,.cls-22,.cls-4,.cls-8,.cls-9{mix-blend-mode:multiply;}.cls-17,.cls-4,.cls-8{opacity:0.5;}.cls-5{fill:#1390ba;}.cls-6{fill:#f79974;}.cls-7{fill:#fff;}.cls-8{fill:#3e72a1;}.cls-9{fill:#ffc8b3;}.cls-10{fill:#1a1a1a;}.cls-11{fill:#4d4d4d;}.cls-12{fill:#333;}.cls-13{fill:#999;}.cls-14{fill:#f45157;}.cls-15{fill:#0b151a;}.cls-16{fill:#c00a15;}.cls-17{fill:#ffb294;}.cls-18{fill:#141c26;}.cls-19{fill:#8196b3;}.cls-20{fill:#fff1db;}.cls-21{fill:#d4c3a9;}.cls-23{fill:#e6454a;}</style></defs><g class="cls-1"><g id="Layer_2" data-name="Layer 2"><g id="Layer_2-2" data-name="Layer 2"><path d="M4.71,71.6c-.47.61-.47,2.05-.36,3.67.44,1.63,2,1.51,3.32,1.71,2.55.4,3.82,2.32,7.22,2.32,2,0,3.37-.44,3.79-1.72a2.16,2.16,0,0,0-1-1.79s-4.63-2.08-4.75-2.16a24,24,0,0,1-2.23-1.76c0-.15-.8-3.71-.8-3.71h-5Z"/><path d="M2.27,79.34a5.09,5.09,0,0,0-.36,3A15.86,15.86,0,0,1,2.59,84c.28,1,.24,2.63,1.71,3.62,1.75,1.38,5.13,1.45,6.19,0A7.7,7.7,0,0,0,9.13,84L7.41,80.78l.11-3L2.59,76.7Z"/><path class="cls-2" d="M10.52,33.45v20c-1.6,5.8-4.7,11.25-5.2,17.05,0,2.44,4.95,3,6.2,1.41.49-4.49,4.29-10.58,6.59-17.67,1.52-7.15,2.79-14.56,2.36-20.54Z"/><path class="cls-3" d="M20.33,34.23c.14,2-2.65,7.4-5.84,9.81-.14,4.35-.7,11.88-1.44,16.79-2.3,7.09-4.4,13.88-4.89,18.36-.83,1-3.31,1.46-4.87.88A2.42,2.42,0,0,1,3,79.94l-.11-.06A1.6,1.6,0,0,1,2,78.45,66.93,66.93,0,0,1,4.65,61.18L4.17,35.42V34.7Z"/><path class="cls-4" d="M7.6,61.73c-3,3.69-3.68,11-4.31,18.34A2.21,2.21,0,0,0,3,79.94l-.11-.06A1.6,1.6,0,0,1,2,78.45,66.93,66.93,0,0,1,4.65,61.18L4.17,35.42l13.4,2.11C7.62,43.35,6.8,52.67,7.6,61.73Z"/><path class="cls-5" d="M14.18,5.81c3.55-.28,8.16,4.06,13,7.41L33.85,7.4c1.35-.71,3.15,1.68,3.52,2.65-1.25,4.34-5.3,7.18-8.42,10.18-3.34,1.53-11.54-7-13-6.57Z"/><path class="cls-6" d="M36.49,9.75c.25-1,.37-.92.51-1.16L38.39,6.7A2.25,2.25,0,0,0,39,4.92l0-.29A1.38,1.38,0,0,0,39,3.37l-.34-.83-.32-1.29L36.21.1c-.73-.39-1.2.43-.41.84l.76.63.08.79L35.13,3.63l-.44-.45.18-1.41L35.08,1c.15-.69-.34-.81-.67-.31l-.73,1.43L33.3,4.66l.83,2.68L33.72,8C33.55,8.92,35.94,10.74,36.49,9.75Z"/><path class="cls-5" d="M21.1,34.07c-.07.48-.13,1-.21,1.37-.14.77-.29.71-.4.51a2.74,2.74,0,0,1-.14-.37c0,.62-11.26,6.05-14.2,4.65A6.44,6.44,0,0,0,5,39.8a5,5,0,0,1-2-1.42c-.72-1.75-.44-1.33-.43-6.22L2,25.76l-.31-4.05-.56-7.5a43.52,43.52,0,0,1,9.28-7.59l7,.33c2.72,1.93,3.33,4.34,3.75,7.58,0,0-.52,12.92-.07,16.06A14,14,0,0,1,21.1,34.07Z"/><path class="cls-7" d="M11.24,5.82,8.05,8.19C6.34,12.9,10.17,15,12.62,17.71l1.63-4.11,3.66.84L16.78,7.63Z"/><path class="cls-8" d="M21.72,34.53a1.37,1.37,0,0,1-.83.91.66.66,0,0,0-.4.51,2.74,2.74,0,0,1-.14-.37c0,.62-11.26,6.05-14.2,4.65A6.44,6.44,0,0,0,5,39.8a5,5,0,0,1-2-1.42c-.72-1.75-.44-1.33-.43-6.22L2,25.76l-.31-4.05,6.39-3.48s3.08,5.88,4.83,9.29c.21.42,4.63,2.65,6.92,4.32,2.61,1.92-.33,1.4,1.24,2.23C21.5,34.29,21.73,34.45,21.72,34.53Z"/><path class="cls-6" d="M10.84,5.52,9.37,8.11c-1.18,3.15,2.56,5.77,4.87,5.38L16.56,9.3Z"/><path class="cls-9" d="M11.08,8.74a8.85,8.85,0,0,0,.76,4.3c1.72,3.13,3.14.82,3.85-.19Z"/><path class="cls-6" d="M11,8a7,7,0,0,0,3.23,5.67,1.63,1.63,0,0,0,2,0L18.16,11a7,7,0,0,0,1.61-2.78l-2.91-6H12.33l-2.15,3Z"/><path d="M9.84,7.5l1.8.38a1.53,1.53,0,0,1,1.94-.15A6.86,6.86,0,0,0,17.91,9.1,3.14,3.14,0,0,0,21,5.67C20.86,4,18,.06,14.6.29c-4,.26-5.86,3.22-5.11,7.61Z"/><path class="cls-6" d="M10.56,5.54a.75.75,0,0,0-.79.28,1.06,1.06,0,0,0-.14.61A3.17,3.17,0,0,0,10,7.75a1.38,1.38,0,0,0,.33.47.73.73,0,0,0,.53.18c.68-.1.56-1,.62-1.45A1.3,1.3,0,0,0,10.56,5.54Z"/><path class="cls-10" d="M32,.1c1.09.1,2.17.26,3.26.41l1.62.27.81.13a1.13,1.13,0,0,1,.79.34s0,0,0,.06a1.21,1.21,0,0,1-.85.14l-.82-.08-1.64-.15C34.07,1.09,33,1,31.9.79a.35.35,0,0,1-.29-.4A.36.36,0,0,1,32,.1Z"/><path class="cls-6" d="M35.36,8.12V3.44l-.23.19-.44-.45.18-1.41L35.08,1c.15-.69-.34-.81-.67-.31l-.73,1.43L33.3,4.66l.83,2.68L33.72,8c-.17.91,2.22,2.73,2.77,1.74.25-1,.37-.92.51-1.16l.35-.47Z"/><path class="cls-11" d="M55.18,41a2.69,2.69,0,0,0-2.38,0,.83.83,0,0,0-.49.68V71.56a.82.82,0,0,0,.49.68,2.63,2.63,0,0,0,2.38,0,.82.82,0,0,0,.49-.68V41.68A.83.83,0,0,0,55.18,41Z"/><path class="cls-12" d="M24.56,78.69a1,1,0,0,1-1.91,0,1,1,0,0,1,1.91,0Z"/><path class="cls-12" d="M39.38,83a1,1,0,1,1-1-1A1,1,0,0,1,39.38,83Z"/><path class="cls-12" d="M50.88,76.36a1,1,0,1,1-1-1A1,1,0,0,1,50.88,76.36Z"/><path class="cls-12" d="M43.73,67.69a1,1,0,1,1-.95-1A.95.95,0,0,1,43.73,67.69Z"/><path class="cls-12" d="M26.92,69.42a1,1,0,1,1-1-1A.95.95,0,0,1,26.92,69.42Z"/><path class="cls-12" d="M38.93,73.34l4.67-6.19v-.41H42.22l-6,5.8a5.4,5.4,0,0,0-1.21.11L26.19,68.2l-1.09.22v.41l7.77,5.06a1.27,1.27,0,0,0-.19.69l-10.12,3V78l.7.78,10.8-2.67a5.13,5.13,0,0,0,1.09.32L37.72,83l1.53-.14v-.41l-1.1-6.31a2.86,2.86,0,0,0,.47-.22,2.42,2.42,0,0,0,.39-.27l11.72.63.24-.87V75L39.49,74A2,2,0,0,0,38.93,73.34Z"/><path class="cls-13" d="M38.93,71.7l4.67-5-1.38-.4-6,4.57A5.4,5.4,0,0,0,35,71l-8.83-3.23-1.09.63,7.77,3.83a1.24,1.24,0,0,0-.19.69L22.56,77.61l.7.78,10.8-3.9a5.13,5.13,0,0,0,1.09.32l2.57,7.81,1.53-.14-1.1-8a4,4,0,0,0,.47-.22A2.42,2.42,0,0,0,39,74L50.73,75.9,51,75,39.49,72.32A2,2,0,0,0,38.93,71.7Z"/><path class="cls-11" d="M37.68,63.85a1.46,1.46,0,0,0-.3-.22,2.92,2.92,0,0,0-2.64,0,1.89,1.89,0,0,0-.31.22h-.24v8.72a.91.91,0,0,0,.55.75,2.92,2.92,0,0,0,2.64,0,.92.92,0,0,0,.54-.75V63.85Z"/><path class="cls-11" d="M37.38,63.1a.8.8,0,0,1,0,1.51,2.92,2.92,0,0,1-2.64,0,.79.79,0,0,1,0-1.51A2.92,2.92,0,0,1,37.38,63.1Z"/><path class="cls-13" d="M38.44,57.74a2.76,2.76,0,0,0-1.26-.66,4.26,4.26,0,0,0-2.24,0,2.71,2.71,0,0,0-1.26.66h-.35v6.62c0,.56.51,1.11,1.53,1.41a4.23,4.23,0,0,0,2.39,0c1-.3,1.54-.85,1.54-1.41V57.74Z"/><path class="cls-11" d="M37.25,56.33c2,.6,2,2.22,0,2.82a4.23,4.23,0,0,1-2.39,0c-2-.6-2-2.22,0-2.82A4.23,4.23,0,0,1,37.25,56.33Z"/><path class="cls-13" d="M38,57.51l-5.34-3.06c-4.53-2.6-8.09-8.19-8.09-12.74V34h1.89v7.69c0,3.88,3.2,8.86,7.14,11.12l5.35,3.06Z"/><rect class="cls-10" x="25.01" y="53.33" width="22.1" height="3.11"/><path class="cls-10" d="M43.87,52c4.31,2.48,4.31,6.49,0,9a17.41,17.41,0,0,1-15.63,0c-4.31-2.47-4.31-6.48,0-9A17.41,17.41,0,0,1,43.87,52Z"/><ellipse class="cls-11" cx="36.06" cy="53.33" rx="11.05" ry="6.33"/><path class="cls-10" d="M30.76,26.56l2,1.19-1.24,1.06a7.3,7.3,0,0,1-3.31,5.45L23.55,37l-2.81,2.86L18.8,38.71a2.25,2.25,0,0,1-1.09-2.2A7.85,7.85,0,0,1,21,30.82a40.89,40.89,0,0,1,7.23-4.15C29.32,26.21,30.16,26.1,30.76,26.56Z"/><path class="cls-11" d="M30.4,27.9a37.11,37.11,0,0,0-7.23,4.15c-1.64,1.32-3.31,3.6-3.31,5.69s1.64,3.18,3.31,1.9a36,36,0,0,1,7.36-4.55,5.91,5.91,0,0,0,3.19-5.29C33.72,27.71,32.32,27,30.4,27.9Z"/><path d="M74.67,62.49v2.39L55.7,54a.51.51,0,0,1-.21-.47,1.6,1.6,0,0,1,.74-1.27.5.5,0,0,1,.52-.05Z"/><path class="cls-14" d="M50.31,33.35a5.41,5.41,0,0,1-.88,4.46,8,8,0,0,1-.75.93l-3-1-1.4-.46L43,31.4l0-4.32Z"/><path d="M53.73,76c-.5.55-.62,1.92-.65,3.47.29,1.6,1.79,1.61,3,1.92,2.43.59,3.49,2.53,6.76,2.81,1.95.16,3.28-.14,3.8-1.33a2.13,2.13,0,0,0-.81-1.8s-4.29-2.36-4.4-2.45a22,22,0,0,1-2-1.86c0-.16-.9-3.65-.9-3.65l-4.36-.37Z"/><path d="M43.52,81.58a4.15,4.15,0,0,0-.19,2.76A16.58,16.58,0,0,1,43.85,86c.19,1,0,2.53,1.34,3.6,1.57,1.46,4.82,1.8,6,.48a7.31,7.31,0,0,0-1-3.54l-1.9-3.87-.18-2.86-4.53-.94Z"/><path class="cls-3" d="M29.06,58.71a102.42,102.42,0,0,0,12.12,9.08c-.46,2.61.8,8.58,1.87,14.18,1,1.85,5.58,1.1,5.58,0-.24-7-.34-15.63-1-17.67-3.21-4.55-6.37-8.64-9.26-10.48l-5-2.73-4.36,3.49Z"/><path class="cls-3" d="M37.52,56c2.43,2.3,10.85,2.84,14.84,5.13-.47,2.61-.35,9.49.72,15.09,1,1.85,6.35,1.36,6.35.25-.24-7,1.1-15.49.46-17.54-1.15-5.19-7.44-7-15.34-10l-2.34-.52-2.34.68Z"/><path class="cls-15" d="M45.18,48.81s-2.67-.56-3.23-2c-4.72,2.67-10.66,6.67-15.16,3.6a15.74,15.74,0,0,0-.31,4.21c.38,2.35,1.67,4.84,3.11,5.52,1.21.58.15-4,3.85-6.32,2.14-.7,5.14,1.32,6.78,1a1.22,1.22,0,0,0,1-.81s0-.07,0-.11C42.79,49.49,45.41,49.78,45.18,48.81Z"/><path class="cls-14" d="M42,45.4A1.75,1.75,0,0,0,42,46.77l-.15.09C37.33,49.42,32,54.14,27,51.33a1.7,1.7,0,0,1-.86-1.41c-.15-2.83-.31-6.87-.21-10,0-.77.07-1.5.13-2.13a13,13,0,0,1,.88-4,24.36,24.36,0,0,1,9.17-7.71l6.71.58c1.42,1.56,2.06,3.93,2.27,6.75C45.05,33.42,44.2,40.5,42,45.4Z"/><path class="cls-7" d="M36.81,25.43l-2.89,1.91c-1.71,4,1.52,6,3.53,8.43l1.61-3.47,3.15.9-.67-5.94Z"/><path class="cls-16" d="M41.79,46.86C37.33,49.42,32,54.14,27,51.33a1.7,1.7,0,0,1-.86-1.41c-.15-2.83-.31-6.87-.21-10l.9-4.46,5.74,1.36,1.66,7.45s4.43,2.32,4.71,2.41S40.38,46.8,41.79,46.86Z"/><path d="M45.33,22.3a6.16,6.16,0,0,1-.48,5.54c-1-1.2-2-2.48-3.11-2.73L42,22.85Z"/><path class="cls-6" d="M39.82,32.1c-.28.25-.37.35-.68.38-3.28.28-4.86-3.89-3.68-5.92a16.48,16.48,0,0,0,1.2-2.45l4.66,3.27a2.4,2.4,0,0,1-.12,1.18C40.79,29.73,40.67,31.36,39.82,32.1Z"/><path class="cls-17" d="M39.2,34.73c-1.66.37-4-1.61-2.57-8.26L41,28.58C40.54,29.75,42.17,34.08,39.2,34.73Z"/><path class="cls-6" d="M36.71,25.16A8.84,8.84,0,0,0,37,28.94a6.53,6.53,0,0,0,2.61,2.71,1.72,1.72,0,0,0,1.67.09c.58-.3,2.48-4.42,2.48-4.42a13.68,13.68,0,0,0,1-3.12c.24-1.45.43-4.79-3.7-5.78a4.06,4.06,0,0,0-4.6,2c-.72,1.24-.58,4-.58,4Z"/><path d="M36.8,25.34a6.65,6.65,0,0,0-.44,2.36,10.94,10.94,0,0,0,1.08,3.19c.46.88.85,2.18,1.77,2.56s2.71.43,3.5-.67.42-4.1.42-4.1c-.13.25-.31.7-.62.27-.21-.28-1.08-.22-1.79.13s-.71.71-1.45.59-1.46-.89-1.79-2.24a4,4,0,0,1,.29-2.11Z"/><path d="M35.72,24.65l1.47,1.72.58-1.05a1,1,0,0,1,1.33-.54,7.13,7.13,0,0,0,3.61.11c2.78-.34,1.29,1.86,1.29,1.86a4.58,4.58,0,0,0,1.21-4.82,6.33,6.33,0,0,0-3.56-3.35c-3-1-4.9.45-5.59,2.16A9.75,9.75,0,0,0,35.72,24.65Z"/><path class="cls-6" d="M36.72,23.32a.69.69,0,0,0-.83-.19.7.7,0,0,0-.28.43,1.45,1.45,0,0,0,0,.51,6.57,6.57,0,0,0,.12.89.9.9,0,0,0,.32.64c.2.14.41.4.61.25a2,2,0,0,0,.07-2.53Z"/><path class="cls-6" d="M41,30.43l.74-.21c.61-.16.62-.78.17-.71a2.88,2.88,0,0,0-.91.26C40.56,30,40.56,30.53,41,30.43Z"/><path d="M41.37,26.25c.27-.05.43.08.42.3a1.37,1.37,0,0,1,.28-.1.69.69,0,0,1,.25,0A1.17,1.17,0,0,1,43,26l1.23-.22c.33-.05.51.15.4.46l-.09.24a1.89,1.89,0,0,1-1.29,1.09l-.45.08c-.56.1-.86-.25-.67-.78l.05-.14a.36.36,0,0,0-.21,0,.69.69,0,0,0-.26.11l-.05.14A2,2,0,0,1,40.34,28l-.45.08c-.53.1-.82-.24-.63-.75l.08-.23a1.15,1.15,0,0,1,.8-.67Zm-1.9,1.09c-.14.39.08.65.5.57l.45-.08a1.5,1.5,0,0,0,1-.88l.07-.2c.07-.2,0-.33-.25-.29l-1.23.22a.69.69,0,0,0-.5.42l-.09.24Zm2.91-.56c-.15.42.09.69.52.61l.45-.08a1.44,1.44,0,0,0,1-.84l.09-.24c.07-.19,0-.33-.25-.29L43,26.16a.74.74,0,0,0-.51.43l-.07.19Z"/><path d="M39.48,26.86l-2.14-2.59v.29L39.43,27s.06,0,.07,0A.11.11,0,0,0,39.48,26.86Z"/><path class="cls-18" d="M38.56,82.82a1.6,1.6,0,0,0,.74,1.27.5.5,0,0,0,.52,0L74.59,64.25a.49.49,0,0,0,.22-.47,1.6,1.6,0,0,0-.74-1.27.5.5,0,0,0-.52,0L38.78,82.34A.52.52,0,0,0,38.56,82.82Z"/><path class="cls-18" d="M40.24,74.9v29.88a.83.83,0,0,1-.49.68,2.69,2.69,0,0,1-2.38,0,.83.83,0,0,1-.49-.68V74.9a.82.82,0,0,1,.49-.68,2.63,2.63,0,0,1,2.38,0A.82.82,0,0,1,40.24,74.9Z"/><path class="cls-18" d="M76.42,53.08a2.63,2.63,0,0,0-2.38,0,.81.81,0,0,0-.49.68V83.63a.83.83,0,0,0,.49.69,2.69,2.69,0,0,0,2.38,0,.85.85,0,0,0,.49-.69V53.76A.83.83,0,0,0,76.42,53.08Z"/><path class="cls-18" d="M18.76,62.15a2.63,2.63,0,0,0-2.38,0,.83.83,0,0,0-.49.68V92.7a.85.85,0,0,0,.49.69,2.69,2.69,0,0,0,2.38,0,.83.83,0,0,0,.49-.69V62.83A.81.81,0,0,0,18.76,62.15Z"/><polygon class="cls-18" points="78.08 55.45 38.6 78.08 14.53 64.29 14.53 62.3 54.02 41.66 78.08 53.46 78.08 55.45"/><polygon class="cls-19" points="78.08 53.46 38.6 76.09 14.53 62.3 54.02 39.67 78.08 53.46"/><path class="cls-20" d="M68.16,55c-1.4,1-1.92-.33-1.37-1.71.7-1.76,2.65-2.48,2.77-.78a3.55,3.55,0,0,1-.8,2.33,2.08,2.08,0,0,1-1.79,1c-.94-.16-1.08-1.6-.34-3a3.84,3.84,0,0,1,1.63-1.6c1.14-.5,1.89.39,1.62,1.84A4.67,4.67,0,0,1,68,55.89L43.08,70.26,24.93,59.79l24.41-14.1Z"/><path class="cls-20" d="M68.16,55c-1.4,1-1.92-.33-1.37-1.71.7-1.76,2.65-2.48,2.77-.78a3.55,3.55,0,0,1-.8,2.33,2.08,2.08,0,0,1-1.79,1c-.94-.16-1.08-1.6-.34-3a3.84,3.84,0,0,1,1.63-1.6c1.14-.5,1.89.39,1.62,1.84A4.67,4.67,0,0,1,68,55.89L43.08,70.26,24.93,59.79Z"/><path class="cls-21" d="M43.08,70.33,24.9,59.84l.06-.1L43.08,70.2,67.94,55.84a4.6,4.6,0,0,0,1.88-2.78,1.74,1.74,0,0,0-.39-1.71,1.09,1.09,0,0,0-1.15-.05,3.69,3.69,0,0,0-1.6,1.57,2.87,2.87,0,0,0-.32,2.4.84.84,0,0,0,.62.48,2.06,2.06,0,0,0,1.74-.93,3.61,3.61,0,0,0,.79-2.3c0-.52-.27-.84-.64-.9-.61-.09-1.57.57-2,1.71-.31.78-.27,1.53.09,1.82s.7.15,1.2-.19l.07.1c-.55.37-1,.44-1.34.18a1.77,1.77,0,0,1-.13-2c.49-1.22,1.51-1.87,2.16-1.77.25,0,.67.22.73,1a3.66,3.66,0,0,1-.81,2.38,2.17,2.17,0,0,1-1.85,1,1,1,0,0,1-.7-.55,3,3,0,0,1,.32-2.51,3.87,3.87,0,0,1,1.65-1.62,1.19,1.19,0,0,1,1.27.07,1.85,1.85,0,0,1,.43,1.83A4.71,4.71,0,0,1,68,55.94Z"/><g class="cls-22"><polygon class="cls-11" points="31.95 58.26 45.36 66 53.1 61.52 52.55 61.2 50.85 62.19 49.56 61.44 49.23 61.63 50.51 62.38 45.36 65.36 40.57 62.59 44.37 60.4 44.55 60.3 45.73 59.62 47.23 60.48 47.56 60.29 46.06 59.42 47.57 58.55 47.24 58.36 44.21 60.11 44.03 60.21 40.24 62.4 38.18 61.21 43.01 58.42 42.68 58.23 37.84 61.02 33.06 58.26 43.82 52.05 48.6 54.81 44.65 57.09 44.98 57.28 50.56 54.06 50.22 53.87 48.94 54.62 44.15 51.85 49.31 48.88 54.09 51.64 52.22 52.72 52.55 52.91 54.42 51.83 56.49 53.02 49.49 57.06 49.82 57.26 51.33 56.38 52.76 57.21 53.09 57.02 51.66 56.19 56.82 53.21 61.6 55.98 56.45 58.95 55.16 58.21 54.83 58.4 56.11 59.15 54.48 60.09 55.03 60.41 62.71 55.98 49.31 48.24 31.95 58.26"/><polygon class="cls-7" points="41.93 63.38 41.38 63.7 43.4 64.87 43.96 64.55 41.93 63.38"/><path class="cls-11" d="M41.93,63.47l1.86,1.08-.39.22L41.54,63.7l.39-.23Zm0-.09-.55.32,2,1.17.56-.32-2-1.17Z"/><polygon class="cls-7" points="34.44 59.05 33.89 59.37 35.91 60.54 36.47 60.22 34.44 59.05"/><path class="cls-11" d="M34.44,59.15l1.86,1.07-.39.23-1.86-1.08.39-.22Zm0-.1-.55.32,2,1.17.56-.32-2-1.17Z"/><polygon class="cls-7" points="60.59 57.2 60.04 56.88 58.01 58.05 58.56 58.37 60.59 57.2"/><path class="cls-11" d="M60,57l.38.22-1.86,1.07-.38-.22L60,57Zm0-.1-2,1.17.55.32,2-1.17L60,56.88Z"/><polygon class="cls-7" points="49.5 63.6 48.95 63.28 46.92 64.45 47.48 64.77 49.5 63.6"/><path class="cls-11" d="M49,63.38l.39.22-1.87,1.08-.38-.23L49,63.38Zm0-.1-2,1.17.55.32,2-1.17L49,63.28Z"/><polygon class="cls-7" points="47.74 49.78 47.19 49.46 45.16 50.63 45.72 50.95 47.74 49.78"/><path class="cls-11" d="M47.19,49.56l.39.22-1.86,1.08-.39-.23,1.86-1.07Zm0-.1-2,1.17.56.32,2-1.17-.55-.32Z"/><polygon class="cls-7" points="40.99 53.68 40.44 53.36 36.48 55.64 37.03 55.96 40.99 53.68"/><path class="cls-11" d="M40.44,53.45l.39.23L37,55.87l-.38-.23,3.79-2.19Zm0-.09-4,2.28L37,56l4-2.28-.56-.32Z"/><polygon class="cls-7" points="51.24 49.35 50.69 49.67 52.71 50.84 53.27 50.52 51.24 49.35"/><path class="cls-11" d="M51.24,49.45l1.86,1.07-.39.23-1.86-1.08.39-.22Zm0-.1-.55.32,2,1.17.56-.32-2-1.17Z"/><polygon class="cls-7" points="58.73 53.68 58.18 54 60.2 55.17 60.76 54.85 58.73 53.68"/><path class="cls-11" d="M58.73,53.77l1.86,1.08-.39.22L58.34,54l.39-.23Zm0-.09-.55.32,2,1.17.56-.32-2-1.17Z"/><polygon class="cls-7" points="38.68 60.87 38.13 61.19 40.29 62.43 40.84 62.11 38.68 60.87"/><path class="cls-11" d="M38.68,61l2,1.15-.38.22-2-1.14.38-.23Zm0-.09-.55.32,2.16,1.24.55-.32-2.16-1.24Z"/><polygon class="cls-7" points="39.15 60.59 38.6 60.91 40.76 62.16 41.31 61.84 39.15 60.59"/><path class="cls-11" d="M39.15,60.69l2,1.15-.38.22-2-1.15.38-.22Zm0-.1-.55.32,2.16,1.25.55-.32-2.16-1.25Z"/><polygon class="cls-7" points="39.62 60.32 39.07 60.64 41.23 61.89 41.78 61.57 39.62 60.32"/><path class="cls-11" d="M39.62,60.42l2,1.15-.38.22-2-1.15.38-.22Zm0-.1-.55.32,2.16,1.25.55-.32-2.16-1.25Z"/><polygon class="cls-7" points="40.09 60.05 39.54 60.37 41.7 61.62 42.25 61.3 40.09 60.05"/><path class="cls-11" d="M40.09,60.15l2,1.15-.38.22-2-1.15.38-.22Zm0-.1-.55.32,2.16,1.25.55-.32-2.16-1.25Z"/><polygon class="cls-7" points="40.56 59.78 40.01 60.1 42.16 61.34 42.72 61.03 40.56 59.78"/><path class="cls-11" d="M40.56,59.88l2,1.15-.39.22-2-1.15.38-.22Zm0-.1L40,60.1l2.15,1.24.56-.31-2.16-1.25Z"/><polygon class="cls-7" points="41.03 59.51 40.48 59.83 42.63 61.07 43.19 60.75 41.03 59.51"/><path class="cls-11" d="M41,59.61l2,1.14-.39.23-2-1.15.39-.22Zm0-.1-.55.32,2.15,1.24.56-.32L41,59.51Z"/><polygon class="cls-7" points="41.5 59.24 40.95 59.56 43.1 60.8 43.66 60.48 41.5 59.24"/><path class="cls-11" d="M41.5,59.33l2,1.15-.39.23-2-1.15.39-.23Zm0-.09-.55.32L43.1,60.8l.56-.32L41.5,59.24Z"/><polygon class="cls-7" points="41.97 58.97 41.42 59.29 43.57 60.53 44.13 60.21 41.97 58.97"/><path class="cls-11" d="M42,59.06l2,1.15-.39.23-2-1.15.39-.23ZM42,59l-.55.32,2.15,1.24.56-.32L42,59Z"/><polygon class="cls-11" points="43.09 58.38 42.92 58.47 40.9 57.3 41.07 57.21 43.09 58.38"/><path class="cls-11" d="M45,57.26l-.06,0a4.32,4.32,0,0,0-3.93,0l0,0A4.43,4.43,0,0,1,45,57.26Z"/><polygon class="cls-11" points="49.64 61.49 47.62 62.66 47.45 62.56 49.47 61.4 49.64 61.49"/><path class="cls-11" d="M47.59,62.58l-.06,0a1.23,1.23,0,0,1,0-2.33l.06,0A1.2,1.2,0,0,0,47.59,62.58Z"/><polygon class="cls-11" points="54.95 56.13 52.92 57.29 52.76 57.2 54.78 56.03 54.95 56.13"/><path class="cls-11" d="M54.86,58.41l0,0a1.2,1.2,0,0,0,0-2.27l0,0A1.23,1.23,0,0,1,54.86,58.41Z"/><polygon class="cls-11" points="52.65 61.24 52.48 61.34 50.46 60.17 50.63 60.07 52.65 61.24"/><path class="cls-11" d="M54.59,60.12l-.06,0a4.38,4.38,0,0,0-3.93,0l-.06,0A4.51,4.51,0,0,1,54.59,60.12Z"/><polygon class="cls-11" points="50.63 54.01 50.47 54.11 48.45 52.94 48.61 52.85 50.63 54.01"/><path class="cls-11" d="M52.57,52.89l0,0a4.34,4.34,0,0,0-3.94,0l0,0A4.49,4.49,0,0,1,52.57,52.89Z"/><path class="cls-11" d="M40.85,56.42a1.06,1.06,0,0,1-1,0,.29.29,0,0,1,0-.55,1.06,1.06,0,0,1,1,0A.29.29,0,0,1,40.85,56.42ZM40,55.9a.25.25,0,0,0,0,.48.87.87,0,0,0,.83,0c.24-.13.24-.35,0-.48A.93.93,0,0,0,40,55.9Z"/><path class="cls-11" d="M45.77,62.88a1.06,1.06,0,0,1-1,0,.29.29,0,0,1,0-.55,1.06,1.06,0,0,1,1,0A.29.29,0,0,1,45.77,62.88Zm-.9-.51a.25.25,0,0,0,0,.48,1,1,0,0,0,.84,0,.25.25,0,0,0,0-.48A.89.89,0,0,0,44.87,62.37Z"/><path class="cls-11" d="M49,51.69a1.06,1.06,0,0,1-1,0,.28.28,0,0,1,0-.54,1.06,1.06,0,0,1,1,0A.28.28,0,0,1,49,51.69Zm-.89-.51c-.24.13-.24.35,0,.48a.87.87,0,0,0,.83,0,.25.25,0,0,0,0-.48A.87.87,0,0,0,48.14,51.18Z"/><path class="cls-11" d="M51.09,59.29a1,1,0,0,1-.94,0c-.27-.15-.27-.4,0-.55a1,1,0,0,1,.94,0C51.36,58.89,51.36,59.14,51.09,59.29Zm-.89-.52a.26.26,0,0,0,0,.49,1,1,0,0,0,.84,0,.26.26,0,0,0,0-.49A1,1,0,0,0,50.2,58.77Z"/><path class="cls-11" d="M50.65,55.75a1.06,1.06,0,0,1-.95,0,.29.29,0,0,1,0-.55,1.06,1.06,0,0,1,.95,0A.29.29,0,0,1,50.65,55.75Zm-.89-.52a.26.26,0,0,0,0,.49,1,1,0,0,0,.84,0,.26.26,0,0,0,0-.49A1,1,0,0,0,49.76,55.23Z"/><path class="cls-11" d="M57.67,56.17a1.06,1.06,0,0,1-1,0,.29.29,0,0,1,0-.55,1.06,1.06,0,0,1,1,0A.29.29,0,0,1,57.67,56.17Zm-.89-.52a.26.26,0,0,0,0,.49,1,1,0,0,0,.84,0,.26.26,0,0,0,0-.49A1,1,0,0,0,56.78,55.65Z"/></g><path class="cls-21" d="M69.42,51.2,51.21,40.75a1.18,1.18,0,0,0-1.1,0,3.84,3.84,0,0,0-1.63,1.6c-.65,1.21-.62,2.48.05,2.86L66.65,55.75C65.06,54.34,67.65,50.58,69.42,51.2Z"/><path class="cls-18" d="M36.88,81.2v2.39l-19-10.87a.51.51,0,0,1-.21-.47A1.6,1.6,0,0,1,18.44,71a.5.5,0,0,1,.52,0Z"/><path class="cls-14" d="M54.44,44.94l-3.21-3.73-2-2.29-.57-.18.38-1.25,1.25-4.14,2.52,2.13,4.93,6.71C58.82,44.18,55.75,46,54.44,44.94Z"/><path class="cls-14" d="M25.25,45.24a11.88,11.88,0,0,0,1.17,5.6c1.78,3.6,2.43,6.09,5.43,8.91.95,1.36,4.21-.78,3.6-2.46C33.83,53.48,32.91,52,31.15,47l1.3-8.91c.35-3-.42-8.27-3.69-6.62C25.25,33.86,25.29,40.72,25.25,45.24Z"/><path class="cls-6" d="M32.81,59.44l.19.24a5.16,5.16,0,0,0,2.61,2.42l.71,1.16.27,1.44c.24.93.68.61.67-.06l-.09-.9-.39-1.44.42,0,.65.56.79,1.07.14.43a.56.56,0,0,0,.54.4h.07l.08.1a.38.38,0,0,0,.51.08.61.61,0,0,0,.25-.55l-.12-1-.53-1.1.64.43.38.65.16.62c.2.61.63.34.66-.17l-.13-.85-.76-1.39L39,60.15l-3.13-1.72-.49-.53C34.59,56.74,32.29,58.45,32.81,59.44Z"/><path class="cls-6" d="M55.24,44.26l.31.37.31,2,.88,1.28.48.81.94.7c.46.28.74-.27.39-.8l-.67-.8-.15-.94a1.58,1.58,0,0,1,1.63-.15s.58,1.08.6,1.13.45,1.07.45,1.07c.31.88,1,.68.84-.06l-.44-1.31-.31-1,1.07,1.13.63,1c.39.58,1,.41.77-.16l-.49-1-.55-.93,1,.79.41.81a.66.66,0,0,0,.62.42.31.31,0,0,0,.15-.52c.14-.13,0-.43-.05-.58l-.93-1.19-2.65-1.91-2.44-1.29-.75-.79C56.31,41.69,54.67,43.45,55.24,44.26Z"/><path class="cls-16" d="M53.53,43.89l-2.3-2.68-2-2.29-.57-.18L44.4,37.33a8.82,8.82,0,0,0,0-3.71l4.62,3.87.37.32.11.1Z"/><path class="cls-16" d="M37.27,73.41a1.27,1.27,0,0,1-.76-1.06l.05-4.19a1.28,1.28,0,0,1,.75-1,4,4,0,0,1,3.63,0,1.22,1.22,0,0,1,.75,1.13s0,0,0-.07l-.05,4.19a1.26,1.26,0,0,1-.75,1A4,4,0,0,1,37.27,73.41Z"/><path class="cls-16" d="M37.32,69.22a4,4,0,0,0,3.63,0,1.11,1.11,0,0,0,0-2.1,4,4,0,0,0-3.63,0A1.11,1.11,0,0,0,37.32,69.22Z"/><path class="cls-16" d="M37.1,68.7a1.36,1.36,0,0,0,.45.39,3.52,3.52,0,0,0,3.16,0,1.31,1.31,0,0,0,.46-.39c.37-.48.22-1.07-.46-1.45a3.48,3.48,0,0,0-3.17,0C36.86,67.63,36.72,68.22,37.1,68.7Z"/><path class="cls-16" d="M37.1,68.7a1.36,1.36,0,0,0,.45.39,3.52,3.52,0,0,0,3.16,0,1.31,1.31,0,0,0,.46-.39,1.52,1.52,0,0,0-.46-.39,3.42,3.42,0,0,0-3.17,0A1.32,1.32,0,0,0,37.1,68.7Z"/><path class="cls-16" d="M37.1,68.7a1.36,1.36,0,0,0,.45.39,3.52,3.52,0,0,0,3.16,0,1.31,1.31,0,0,0,.46-.39,1.52,1.52,0,0,0-.46-.39,3.42,3.42,0,0,0-3.17,0A1.32,1.32,0,0,0,37.1,68.7Z"/><path class="cls-16" d="M37.1,68.7a1.36,1.36,0,0,0,.45.39,3.52,3.52,0,0,0,3.16,0,1.31,1.31,0,0,0,.46-.39,1.52,1.52,0,0,0-.46-.39,3.42,3.42,0,0,0-3.17,0A1.32,1.32,0,0,0,37.1,68.7Z"/><path class="cls-16" d="M36,72a.76.76,0,0,0,.73-.54.32.32,0,0,0-.18-.39.3.3,0,0,0-.39.18c-.06.15-.15.15-.16.14a.8.8,0,0,1-.59-.53,2.1,2.1,0,0,1,0-1.4.49.49,0,0,1,.2-.25.41.41,0,0,1,.39,0,.57.57,0,0,1,.22.48.3.3,0,1,0,.6,0,1.15,1.15,0,0,0-.48-1,1,1,0,0,0-1-.09,1,1,0,0,0-.52.57,2.68,2.68,0,0,0,0,1.87A1.38,1.38,0,0,0,36,72Z"/><path class="cls-23" d="M37.27,73.41a1.27,1.27,0,0,1-.76-1.06l.05-4.19a1.28,1.28,0,0,1,.75-1,4,4,0,0,1,3.63,0,1.22,1.22,0,0,1,.75,1.13s0,0,0-.07l-.05,4.19a1.26,1.26,0,0,1-.75,1A4,4,0,0,1,37.27,73.41Z"/><path class="cls-7" d="M37.32,69.22a4,4,0,0,0,3.63,0,1.11,1.11,0,0,0,0-2.1,4,4,0,0,0-3.63,0A1.11,1.11,0,0,0,37.32,69.22Z"/><path class="cls-23" d="M37.1,68.7a1.36,1.36,0,0,0,.45.39,3.52,3.52,0,0,0,3.16,0,1.31,1.31,0,0,0,.46-.39c.37-.48.22-1.07-.46-1.45a3.48,3.48,0,0,0-3.17,0C36.86,67.63,36.72,68.22,37.1,68.7Z"/><path class="cls-10" d="M37.1,68.7a1.36,1.36,0,0,0,.45.39,3.52,3.52,0,0,0,3.16,0,1.31,1.31,0,0,0,.46-.39,1.52,1.52,0,0,0-.46-.39,3.42,3.42,0,0,0-3.17,0A1.32,1.32,0,0,0,37.1,68.7Z"/><path class="cls-10" d="M37.1,68.7a1.36,1.36,0,0,0,.45.39,3.52,3.52,0,0,0,3.16,0,1.31,1.31,0,0,0,.46-.39,1.52,1.52,0,0,0-.46-.39,3.42,3.42,0,0,0-3.17,0A1.32,1.32,0,0,0,37.1,68.7Z"/><path class="cls-23" d="M36,72a.76.76,0,0,0,.73-.54.32.32,0,0,0-.18-.39.3.3,0,0,0-.39.18c-.06.15-.15.15-.16.14a.8.8,0,0,1-.59-.53,2.1,2.1,0,0,1,0-1.4.49.49,0,0,1,.2-.25.41.41,0,0,1,.39,0,.57.57,0,0,1,.22.48.3.3,0,1,0,.6,0,1.15,1.15,0,0,0-.48-1,1,1,0,0,0-1-.09,1,1,0,0,0-.52.57,2.68,2.68,0,0,0,0,1.87A1.38,1.38,0,0,0,36,72Z"/><path class="cls-6" d="M19.25,32.94c.07,0,2.06,0,2.06,0l3.84-.56,2.3,1.26,1.75,1,1.94,2.13c.35.46,0,.81-.61.41l-1.92-1.56a.9.9,0,0,1-.6,1,1.19,1.19,0,0,1-.9.91,1.42,1.42,0,0,1-.93.61l-1.65.39-.69-.43-.1-.71-1.69-.62-.91-.7-2.43-1.51Z"/><path class="cls-5" d="M22.08,32.87c-1.52.08-1.2,2.49-.79,3.32C16.75,36,9.14,34.94,7,32.6c-3.43-4-5.62-9.76-6.63-13.12-2.13-8.22,6.17-6.63,7.39-2.59.92,3.59,2.08,6.39,3.81,11.69Z"/></g></g></g></svg>