<svg xmlns="http://www.w3.org/2000/svg" viewBox="0 0 51.09 106.01"><defs><style>.cls-1{isolation:isolate;}.cls-2{fill:#d4eeff;}.cls-12,.cls-3{fill:#ffc8b3;}.cls-4{fill:#f79974;}.cls-5{fill:#ffb294;opacity:0.4;}.cls-12,.cls-19,.cls-5,.cls-6,.cls-9{mix-blend-mode:multiply;}.cls-6{fill:#227fbc;opacity:0.3;}.cls-7{fill:#10304d;}.cls-8{fill:#214b71;}.cls-9{fill:#162b35;}.cls-19,.cls-9{opacity:0.5;}.cls-10{fill:#0b151a;}.cls-11{fill:#fff;}.cls-13{fill:#961b20;}.cls-14{fill:#f45157;}.cls-15{fill:#c00a15;}.cls-16{fill:#ffe3ba;}.cls-17{fill:#ffebcc;}.cls-18,.cls-19{fill:#d4c3a9;}</style></defs><g class="cls-1"><g id="Layer_2" data-name="Layer 2"><g id="Layer_2-2" data-name="Layer 2"><path class="cls-2" d="M44.17,43.83c.62,0,.79-1.18.71-2.93l-2.3.32C42.09,42.53,43,43.26,44.17,43.83Z"/><path class="cls-3" d="M49.21,41.54l-.89,1.57-.64,1.12A5,5,0,0,1,45,43.94L43.6,44l-.24,0-1.79,0L42,41.63l2.18-.92a6.15,6.15,0,0,1,.56-1.42,3.1,3.1,0,0,0,.64-1.94c0-1.17-.09-1.59.16-1.59,1.4,0,.82,3.41.82,3.41,1.05-.08,2.52-.23,2.66.31Z"/><path class="cls-3" d="M48.5,39.78l-.18,3.33-.64,1.12A5,5,0,0,1,45,43.94L43.6,44l.07,0a2.94,2.94,0,0,0,1.68-2.63C45.38,39.08,47.6,40.07,48.5,39.78Z"/><path class="cls-3" d="M49,39.48a4,4,0,0,1-2.16.65c-1.25,0-1.09,1-.62,1.13-.41.14-.75.25-.69.68s.45.56.91.53c-.48.16-.45,1.1.67,1,0,0-.59.24-.17.69.18.18.69.22,1.41-.07l.41-.14C49.83,42.84,49,39.48,49,39.48Z"/><path class="cls-4" d="M49.21,41.54l-.89,1.57-.64,1.12A5,5,0,0,1,45,43.94L43.6,44l-.24,0-1.79,0L42,41.63l2.18-.92a6.15,6.15,0,0,1,.56-1.42,3.1,3.1,0,0,0,.64-1.94c0-1.17-.09-1.59.16-1.59,1.4,0,.82,3.41.82,3.41,1.05-.08,2.52-.23,2.66.31Z"/><path class="cls-5" d="M48.5,39.78l-.18,3.33-.64,1.12A5,5,0,0,1,45,43.94L43.6,44l.07,0a2.94,2.94,0,0,0,1.68-2.63C45.38,39.08,47.6,40.07,48.5,39.78Z"/><path class="cls-4" d="M49,39.48a4,4,0,0,1-2.16.65c-1.25,0-1.09,1-.62,1.13-.41.14-.75.25-.69.68s.45.56.91.53c-.48.16-.45,1.1.67,1,0,0-.59.24-.17.69.18.18.69.22,1.41-.07l.41-.14C49.83,42.84,49,39.48,49,39.48Z"/><path class="cls-2" d="M44.43,44a21,21,0,0,1-3.46.58c-3.67.44-9,.77-10.1.1a12.86,12.86,0,0,1-3.1-3.87c-1-1.82-1.91-3.86-2.76-5.65l5.18-6.44a69,69,0,0,1,3.33,10.73l10.65,1.28A2.36,2.36,0,0,0,44.43,44Z"/><path class="cls-6" d="M42.62,43.43,41,44.56c-3.67.44-9,.77-10.1.1a12.86,12.86,0,0,1-3.1-3.87l.3-5.41,1.66-2.12c.18,3.86.52,7.54,2.15,9.81C34.21,44,38.41,43.27,42.62,43.43Z"/><path d="M11.18,96.63a5,5,0,0,0-.36,3,16.41,16.41,0,0,1,.68,1.66c.29,1,.24,2.65,1.72,3.65,1.77,1.39,5.18,1.46,6.25,0a7.79,7.79,0,0,0-1.37-3.62l-1.73-3.22.11-3L11.5,94Z"/><path d="M20.67,89.34c-.46.63-.43,2.08-.29,3.71.47,1.64,2,1.49,3.37,1.67,2.58.36,3.9,2.28,7.32,2.21,2,0,3.39-.5,3.8-1.8a2.22,2.22,0,0,0-1-1.79c-4.72-2-4.72-2-4.83-2.09a24.38,24.38,0,0,1-2.28-1.73c0-.16-.87-3.73-.87-3.73l-5,.09Z"/><path class="cls-7" d="M18.93,51.08l3.62,19.86c-.55,6-2.64,12-2.08,17.85.45,2.43,5.45,2.06,6.41.28-.33-4.54,2.34-11.28,3.34-18.73.22-7.37.13-15-1.37-20.8Z"/><path class="cls-8" d="M29.63,53.51c-.19.75-.4,1.41-.61,2,0,.06-.05.12-.07.17a6.71,6.71,0,0,1-3.25,3.79c-.35.19-.74.37-1.15.55a16.55,16.55,0,0,1-7.7,1h-.1l-1.05-.1c-.82-.1-1.61-.22-2.34-.35a8.07,8.07,0,0,1-.21-.85,15.49,15.49,0,0,1,.09-6.3c0-.24.07-.5.11-.76l0-.17c5.38,1.94,12.74.4,16.11-4.43A43.57,43.57,0,0,0,29.63,53.51Z"/><path class="cls-8" d="M29,55.67c-1.37,5.82-5.15,6-5.21,7.44A140.29,140.29,0,0,1,22.05,78c-2.32,7.15-4.44,14-4.93,18.52-.85,1.08-3.43,1.48-5,.85a2.43,2.43,0,0,1-.6-.32,1.55,1.55,0,0,1-.66-1.29,66.8,66.8,0,0,1,2.71-17.41l-.43-18.66L13.09,57,18.48,56l10.14-2C28.68,54.76,29.17,54.7,29,55.67Z"/><path class="cls-9" d="M24.25,57.45c-.16.31-5.26-.33-5.32,0-.3,1.61.71,3.57-.83,5.18-3.57,3.73-2.39,9.22-1.79,15.51-3.55,5-4.67,11.49-4.18,19.19a2.43,2.43,0,0,1-.6-.32,1.55,1.55,0,0,1-.66-1.29,66.8,66.8,0,0,1,2.71-17.41l-.43-18.66a15.49,15.49,0,0,1,.09-6.3C17.83,53.89,23.37,55.05,24.25,57.45Z"/><path class="cls-2" d="M29.73,33.27s-.32,8.61-.31,14.72c-.27,5-5.83,7.38-10.5,7.06-2.38-.16-4.52-1-5.61-2.63l-.89-3.87-.87-3.8-.11-1-.07-.71,0-.36-1-9.11c.42-.47.84-.94,1.28-1.4s1-1,1.44-1.44a43.23,43.23,0,0,1,6-4.8h7.48C28.28,27.56,29.22,30.14,29.73,33.27Z"/><path class="cls-2" d="M25.56,25.46,29,36.18s1.77-5.62,1.2-7.48C29.31,25.89,25.56,25.46,25.56,25.46Z"/><path class="cls-6" d="M20.59,55.05c-2.29.61-6.34-.39-7.28-2.63l-.89-3.87-.87-3.8-.11-1L11.77,42l4.1-2.19A21.72,21.72,0,0,0,20.59,55.05Z"/><path class="cls-4" d="M16.94,56.65l-4.71-7.11a5.9,5.9,0,0,0-3.68,3.9c2.29,2,4.43,3.67,6.61,5.64C16.69,58.18,17.08,57.29,16.94,56.65Z"/><path class="cls-10" d="M17,55.56a19.26,19.26,0,0,1-3,4.66l.93,1.18a48.44,48.44,0,0,0,3.19-5Z"/><path class="cls-11" d="M19.17,25.56l-3,2.39c-1.5,4.61,2.26,6.5,4.72,9.06l1.62-4.42,3.4,1.1-1.31-6.56Z"/><path class="cls-4" d="M22.5,32.59c-3.06.9-5.51-3-5.16-5.07s.45-3.27.45-3.27l5.92,1.46s.06.55.1,1.34C23.94,30,23.27,32.37,22.5,32.59Z"/><path class="cls-12" d="M23.59,34.6c-2.78.35-4.95-8.1-4.95-8.1l5.95.63C24.74,30.53,25.4,34.38,23.59,34.6Z"/><path class="cls-4" d="M18.25,25.28A9.58,9.58,0,0,0,20,28.94a7,7,0,0,0,3.67,1.7,1.84,1.84,0,0,0,1.7-.55c.45-.53.72-5.41.72-5.41a14.75,14.75,0,0,0-.26-3.5c-.33-1.54-1.45-5-5.95-4.35a4.34,4.34,0,0,0-3.8,3.79c-.22,1.52,1,4.23,1,4.23Z"/><path d="M17.06,25.16,19.2,26.3,19.36,25c0-.61.38-.82,1-.77a4.75,4.75,0,0,0,4.78-3.8c.63.25.73.94.81,1.08,1.49-3-2.61-4.86-5.36-4.77-3.35.11-4.7,2.36-4.71,4.34A10.79,10.79,0,0,0,17.06,25.16Z"/><path class="cls-4" d="M17.54,23.43a.74.74,0,0,0-.9.14.71.71,0,0,0-.11.53,1.69,1.69,0,0,0,.18.52c.15.29.3.57.47.84a1,1,0,0,0,.57.52c.26.06.58.24.72,0a2.18,2.18,0,0,0,.07-1.11A2.12,2.12,0,0,0,17.54,23.43Z"/><g class="cls-1"><polygon class="cls-13" points="51.09 14.71 43.97 89.93 42.62 92.28 49.74 17.06 51.09 14.71"/><polygon class="cls-14" points="49.74 17.06 42.62 92.28 38.33 92.54 45.45 17.33 49.74 17.06"/><polygon class="cls-15" points="45.45 17.33 38.33 92.54 35.39 90.46 42.51 15.24 45.45 17.33"/><polygon class="cls-16" points="51.09 14.71 49.74 17.06 45.45 17.33 42.51 15.24 43.85 12.89 48.15 12.63 51.09 14.71"/></g><path class="cls-16" d="M51.09,14.71,49.27,4.63A5.66,5.66,0,0,1,48.1,6a1.43,1.43,0,0,1-1.92-1L42.51,15.24Z"/><path class="cls-10" d="M47.81,6.63c1.46-.13,1.38-1.18,1.46-2L48.48.27A.32.32,0,0,0,48.19,0a.34.34,0,0,0-.34.22L46.18,4.91A1.54,1.54,0,0,0,47.81,6.63Z"/><path class="cls-17" d="M25.65,55.66l-2-1C23.57,55.85,24.27,56.59,25.65,55.66Z"/><path class="cls-17" d="M24.13,56.68a2.66,2.66,0,0,0,2.28-1.22,4.62,4.62,0,0,0,1-3c-.17-2.16-2.64-1.23-3.54,1a3.44,3.44,0,0,0-.26,1.16l2,1c-1.38.93-2.08.19-2-1l-.48-.23C23,55.59,23.28,56.54,24.13,56.68Z"/><path class="cls-18" d="M27.83,53.21a6,6,0,0,1-2.43,3.58l-1.15.66-6.58-3.84-6.8-4L1.29,44l.4-.23,7.2,3.56,5.92,2.93,8.34,4.13s0,0,0,.07l0,.23a2.6,2.6,0,0,0,.13,1.19l.05.12a1.09,1.09,0,0,0,.84.64,2.63,2.63,0,0,0,2.27-1.22,4.63,4.63,0,0,0,1-3c-.17-2.16-2.64-1.24-3.54,1a3.44,3.44,0,0,0-.26,1.16l-.47-.23a4.8,4.8,0,0,1,.54-1.52,4.85,4.85,0,0,1,2.06-2,1.73,1.73,0,0,1,1.11-.14C27.66,50.94,28.07,51.9,27.83,53.21Z"/><path class="cls-18" d="M27.82,53.21c.35-1.84-.6-3-2.06-2.34a4.85,4.85,0,0,0-2.06,2,3.84,3.84,0,0,0-.46,3l.72-.08a2.33,2.33,0,0,1-.07-2.35c.9-2.24,3.37-3.17,3.54-1a4.62,4.62,0,0,1-1,3,2.66,2.66,0,0,1-2.28,1.22,1.15,1.15,0,0,1-.89-.75l-1.35.15,2.36,1.38,1.15-.67A6,6,0,0,0,27.82,53.21Z"/><path class="cls-18" d="M25.65,55.66,24,55.85C24.3,56.18,24.86,56.19,25.65,55.66Z"/><path class="cls-18" d="M24.13,56.68a2.66,2.66,0,0,0,2.28-1.22,4.62,4.62,0,0,0,1-3c-.17-2.16-2.64-1.23-3.54,1A2.33,2.33,0,0,0,24,55.85l1.69-.19c-.79.53-1.35.52-1.69.19l-.72.08A1.15,1.15,0,0,0,24.13,56.68Z"/><path class="cls-17" d="M27.9,53.22a2.37,2.37,0,0,0-.55-2.33,1.54,1.54,0,0,0-1.62-.09,5,5,0,0,0-2.1,2.07,3.75,3.75,0,0,0-.41,3.19,1.17,1.17,0,0,0,.9.69,2.7,2.7,0,0,0,2.34-1.24,4.63,4.63,0,0,0,1-3c-.07-1-.61-1.23-.93-1.28-.83-.13-2.12.7-2.75,2.26A2.27,2.27,0,0,0,24,56c.4.32,1,.24,1.71-.24l-.09-.12c-.64.43-1.18.52-1.53.25s-.5-1.33-.11-2.33c.58-1.44,1.81-2.29,2.59-2.17.47.08.75.48.8,1.15a4.52,4.52,0,0,1-1,2.92,2.63,2.63,0,0,1-2.21,1.19,1.06,1.06,0,0,1-.79-.61,3.59,3.59,0,0,1,.41-3,4.71,4.71,0,0,1,2-2,1.37,1.37,0,0,1,1.46.07,2.21,2.21,0,0,1,.5,2.18,5.88,5.88,0,0,1-2.38,3.53l-1.2.69.15.09,1.12-.65A6.08,6.08,0,0,0,27.9,53.22Z"/><path class="cls-17" d="M27.25,50.82a1.75,1.75,0,0,0-.38-.09c-1.52-.12-3.33,1.88-3.71,3.7l0,.07,0,.23a2.44,2.44,0,0,0,.13,1.19l.05.12a1.65,1.65,0,0,0,.43.56l-7-4.07L10,48.63,1.7,43.82l-1-.61c-.85-.49-.89-2.1-.05-3.64a4.77,4.77,0,0,1,2.06-2,1.53,1.53,0,0,1,1.4,0L11.83,42l2.57,1.47Z"/><path class="cls-19" d="M17.67,53.61l-6.8-4-.88-1-1.1-1.26L8.55,47l3-2.23-.1-1L11.77,42l.06,0,2.57,1.47c-.81,1-1.64,1.87-1.54,3.54a11.55,11.55,0,0,0,2,3.32c.61.76,1.26,1.52,1.89,2.23Z"/><path class="cls-2" d="M16.66,56.23l-6.33-9.48,5.54-7-5.54-6.21S4,44.34,4,46.75C4,48.94,5.56,52,15,59A11.46,11.46,0,0,0,16.66,56.23Z"/><path class="cls-4" d="M49,39.73a4,4,0,0,1-.79.09c-1.24,0-1.09,1-.62,1.13-.41.14-.75.25-.69.68s.46.56.91.54c-.48.15-.45,1.09.67,1,0,0-.59.24-.17.69.11.12.35-.09.69-.14Z"/></g></g></g></svg>