<svg xmlns="http://www.w3.org/2000/svg" viewBox="0 0 41.4 85.53"><defs><style>.cls-1{isolation:isolate;}.cls-2{fill:#fff1db;}.cls-11,.cls-3{mix-blend-mode:multiply;}.cls-4{fill:#4d4d4d;}.cls-5{fill:#fff;}.cls-6{fill:#f79974;}.cls-7{fill:#f45157;}.cls-8{fill:#c00a15;}.cls-9{fill:#10304d;}.cls-10{fill:#214b71;}.cls-11{fill:#162b35;opacity:0.5;}</style></defs><g class="cls-1"><g id="Layer_2" data-name="Layer 2"><g id="Layer_2-2" data-name="Layer 2"><path class="cls-2" d="M41.4,15.89A200.3,200.3,0,0,0,10.26,0,199.92,199.92,0,0,1,6.37,25.56c4.38,2,9.08,3.73,13.41,5.82,5.43,2.63,9.55,6.55,14.27,10.06A93.21,93.21,0,0,1,41.4,15.89Z"/><g class="cls-3"><path class="cls-4" d="M30.3,35.15c1.7-6,3.79-12.06,5.86-18a70.92,70.92,0,0,0-9-6.2l-.2.79c.88.45,1.32.7,2.16,1.22-.19.73-.29,1.1-.47,1.83L29,15c.18-.74.28-1.1.48-1.83a59.16,59.16,0,0,1,5.77,4.27c-1,2.73-1.3,4.13-2.14,6.72-1.43-1.25-2.09-1.92-3.64-3.14l-.19-.14c-.49-.38-.74-.56-1.27-.92.16-.85.2-1.28.36-2.13L28,17.59c-.16.86-.2,1.29-.34,2.14a20.46,20.46,0,0,0-1.84-1.05c0,.19,0,.28-.06.48a18.16,18.16,0,0,1,3.43,2.19l.18.15c1.53,1.2,2.19,1.87,3.62,3.12-.37,1.11-.55,1.65-.92,2.73a54.18,54.18,0,0,0-4.54-3.91l-.15.43a53.66,53.66,0,0,1,4.54,3.91c-.87,2.48-1.32,3.67-2.05,6.12-3.52-3.07-6.67-5.45-11.33-7.12a18.48,18.48,0,0,0,1.86-6.35c2.09.95,3.2,1.26,4.95,2.17.05-.18.07-.27.12-.44C23,20.85,21.24,20.35,18.35,19c0,.19,0,.28-.07.48l1.69.8a18.06,18.06,0,0,1-1.79,6.39c-2.3-1-3.46-1.58-5.95-2.8a61.46,61.46,0,0,0,1-6.8c1,.45,1.45.68,2.42,1.15,0-.19,0-.28.07-.47-1-.47-1.45-.7-2.42-1.15.19-1.15.3-1.72.52-2.86,3.59,1.63,5.32,2.58,9,4.17,0-.19,0-.29.07-.48-.78-.34-1.17-.52-1.94-.88.14-.82.22-1.22.38-2l-.42-.19c-.16.81-.24,1.22-.39,2-2.63-1.23-3.93-1.88-6.59-3.07.52-2.64.82-3.94,1.3-6.63C18,7.76,19.37,8.36,22,9.51c-.17.73-.25,1.09-.42,1.83l.42.18c.17-.73.25-1.1.42-1.83l2.05.89c.07-.32.11-.48.18-.79C21.31,8.35,18,6.9,14.64,5.53,13.5,11.78,12.46,18,11.36,24.27,18.37,27.65,24.53,30.15,30.3,35.15Z"/><path class="cls-5" d="M33.73,22.32l.53.44c.36-1.12.5-1.72.88-2.86l-.56-.45C34.21,20.6,34.07,21.19,33.73,22.32Z"/><path class="cls-4" d="M33.84,22.27c.32-1,.45-1.58.79-2.63L35,20c-.35,1.05-.48,1.6-.8,2.63l-.38-.31Zm-.11.05.53.44c.36-1.12.5-1.72.88-2.86l-.56-.45c-.37,1.15-.51,1.74-.85,2.87Z"/><path class="cls-5" d="M30.43,32.14l.59.51c.32-1,.49-1.57.84-2.61l-.55-.49C31,30.59,30.77,31.11,30.43,32.14Z"/><path class="cls-4" d="M30.56,32.11c.3-.95.47-1.42.79-2.38l.39.34c-.32,1-.48,1.44-.78,2.39l-.4-.35Zm-.13,0,.59.51c.32-1,.49-1.57.84-2.61l-.55-.49c-.36,1-.54,1.56-.88,2.59Z"/><path class="cls-5" d="M17.49,6.71l-.15.78L20,8.63c.07-.31.1-.47.17-.78Z"/><path class="cls-4" d="M17.47,7.42c0-.22.07-.33.11-.54,1,.41,1.47.62,2.44,1-.05.22-.08.33-.12.55L17.47,7.42Zm-.13.07L20,8.63c.07-.31.1-.47.17-.78L17.49,6.71l-.15.78Z"/><path class="cls-5" d="M31.62,13.66l-.25.79c.94.67,1.39,1,2.26,1.71l.28-.79C33,14.68,32.57,14.34,31.62,13.66Z"/><path class="cls-4" d="M31.5,14.4c.07-.22.11-.33.17-.55.87.62,1.29.94,2.11,1.57l-.2.55c-.8-.63-1.22-1-2.08-1.57Zm-.13,0c.94.67,1.39,1,2.26,1.71l.28-.79c-.89-.69-1.34-1-2.29-1.71l-.25.79Z"/><path class="cls-5" d="M14.09,24.73c-.09.3-.14.45-.24.74.93.45,1.39.67,2.29,1.08.12-.28.17-.43.28-.71Z"/><path class="cls-4" d="M14,25.41c.07-.21.11-.31.17-.52l2.14,1-.2.5-2.11-1Zm-.13.06c.93.45,1.39.67,2.29,1.08.12-.28.17-.43.28-.71l-2.33-1.11c-.09.3-.14.45-.24.74Z"/><path class="cls-5" d="M21.68,28.05l-.33.67a13,13,0,0,1,4.1,2.3c.11-.26.17-.4.29-.66A12.74,12.74,0,0,0,21.68,28.05Z"/><path class="cls-4" d="M21.49,28.65l.24-.47a12.5,12.5,0,0,1,3.88,2.21l-.2.47a12.5,12.5,0,0,0-3.92-2.21Zm-.14.07a13,13,0,0,1,4.1,2.3c.11-.26.17-.4.29-.66a12.74,12.74,0,0,0-4.06-2.31l-.33.67Z"/><path class="cls-5" d="M11.94,21.53l.71.34c.18-1.16.2-1.76.35-2.91l-.72-.34C12.12,19.77,12.1,20.36,11.94,21.53Z"/><path class="cls-4" d="M12.06,21.46c.15-1.07.17-1.62.31-2.67l.5.24c-.13,1-.15,1.6-.31,2.67l-.5-.24Zm-.12.07.71.34c.18-1.16.2-1.76.35-2.91l-.72-.34c-.16,1.15-.18,1.74-.34,2.91Z"/><path class="cls-5" d="M13.61,11.05l.72.31c.22-1.11.34-1.67.56-2.8l-.73-.3Z"/><path class="cls-4" d="M13.74,11c.2-1,.31-1.54.5-2.57l.51.21c-.2,1-.3,1.55-.51,2.57l-.5-.21Zm-.13.06.72.31c.22-1.11.34-1.67.56-2.8l-.73-.3-.55,2.79Z"/><path class="cls-5" d="M31.53,26.94l.52.47c.39-1.12.59-1.69,1-2.85l-.52-.46C32.12,25.26,31.93,25.82,31.53,26.94Z"/><path class="cls-4" d="M31.65,26.9c.36-1,.54-1.55.89-2.62l.36.32c-.35,1.07-.53,1.6-.89,2.63l-.36-.33Zm-.12,0,.52.47c.39-1.12.59-1.69,1-2.85l-.52-.46c-.38,1.16-.57,1.72-1,2.84Z"/><path class="cls-5" d="M31.09,26.54l.52.47c.39-1.12.59-1.68,1-2.84l-.52-.46C31.69,24.87,31.49,25.43,31.09,26.54Z"/><path class="cls-4" d="M31.21,26.5c.37-1,.55-1.54.89-2.61l.36.33c-.34,1.06-.53,1.58-.89,2.61-.14-.13-.22-.19-.36-.33Zm-.12,0,.52.47c.39-1.12.59-1.68,1-2.84l-.52-.46c-.37,1.16-.57,1.72-1,2.83Z"/><path class="cls-5" d="M30.66,26.14l.51.47c.4-1.11.6-1.67,1-2.83l-.52-.46C31.25,24.48,31.06,25,30.66,26.14Z"/><path class="cls-4" d="M30.77,26.11c.37-1,.55-1.54.89-2.61l.36.32c-.34,1.07-.52,1.59-.89,2.61l-.36-.32Zm-.11,0,.51.47c.4-1.11.6-1.67,1-2.83l-.52-.46c-.37,1.16-.56,1.72-1,2.82Z"/><path class="cls-5" d="M30.22,25.75l.51.46c.4-1.1.6-1.66,1-2.82l-.52-.46C30.82,24.09,30.63,24.65,30.22,25.75Z"/><path class="cls-4" d="M30.34,25.71c.37-1,.55-1.54.88-2.6l.36.32C31.25,24.5,31.07,25,30.7,26l-.36-.33Zm-.12,0,.51.46c.4-1.1.6-1.66,1-2.82l-.52-.46c-.36,1.16-.55,1.72-1,2.82Z"/><path class="cls-5" d="M29.79,25.36l.51.46c.4-1.1.6-1.67,1-2.82l-.53-.46C30.38,23.7,30.19,24.26,29.79,25.36Z"/><path class="cls-4" d="M29.9,25.32c.37-1,.55-1.53.88-2.6l.36.32c-.33,1.07-.51,1.58-.88,2.6l-.36-.32Zm-.11,0,.51.46c.4-1.1.6-1.67,1-2.82l-.53-.46c-.35,1.16-.54,1.72-.94,2.82Z"/><path class="cls-5" d="M29.35,25l.52.45c.4-1.1.59-1.66.94-2.82l-.53-.46C29.94,23.32,29.75,23.88,29.35,25Z"/><path class="cls-4" d="M29.47,24.94c.37-1,.54-1.54.86-2.61l.37.32c-.32,1.07-.5,1.59-.87,2.61l-.36-.32Zm-.12,0,.52.45c.4-1.1.59-1.66.94-2.82l-.53-.46c-.34,1.17-.53,1.73-.93,2.83Z"/><path class="cls-5" d="M28.92,24.6l.51.45c.4-1.1.59-1.67.93-2.83l-.54-.45C29.5,22.94,29.31,23.5,28.92,24.6Z"/><path class="cls-4" d="M29,24.56c.37-1,.54-1.53.84-2.61l.38.32c-.32,1.07-.49,1.59-.86,2.6L29,24.56Zm-.11,0,.51.45c.4-1.1.59-1.67.93-2.83l-.54-.45c-.32,1.17-.51,1.73-.9,2.83Z"/><path class="cls-5" d="M28.47,24.24c.21.17.32.25.52.43.4-1.1.59-1.66.91-2.83l-.55-.44A25.37,25.37,0,0,1,28.47,24.24Z"/><path class="cls-4" d="M28.59,24.2a26,26,0,0,0,.81-2.63l.39.31c-.3,1.08-.47,1.6-.84,2.62l-.36-.3Zm-.12,0c.21.17.32.25.52.43.4-1.1.59-1.66.91-2.83l-.55-.44a25.37,25.37,0,0,1-.88,2.84Z"/><path class="cls-4" d="M27.46,23.39l.16.11c-.35,1.05-.55,1.55-1,2.55l-.16-.12C26.91,24.94,27.11,24.43,27.46,23.39Z"/><path class="cls-4" d="M25.42,22.13l.06,0a3.58,3.58,0,0,0,1.12,3.76l0,.07A3.69,3.69,0,0,1,25.42,22.13Z"/><path class="cls-4" d="M28.66,14.64c1,.62,1.45.95,2.35,1.62,0,.1,0,.14-.06.24-.9-.67-1.37-1-2.35-1.62A2.1,2.1,0,0,0,28.66,14.64Z"/><path class="cls-4" d="M30.92,16.33l.06.05c-.43,1.58-1.66,2.09-3,1.25v-.07C29.3,18.37,30.5,17.87,30.92,16.33Z"/><path class="cls-4" d="M18.82,13.06l2.56,1.18a1.85,1.85,0,0,1,0,.23c-1-.46-1.54-.7-2.56-1.18A1.85,1.85,0,0,1,18.82,13.06Z"/><path class="cls-4" d="M22,11.48l0,.08a2.17,2.17,0,0,0-3.09,1.65l-.07,0A2.23,2.23,0,0,1,22,11.48Z"/><path class="cls-4" d="M27,11.59l.22.11c-.29,1.15-.42,1.72-.67,2.88l-.21-.11C26.53,13.31,26.67,12.74,27,11.59Z"/><path class="cls-4" d="M24.44,10.45l.07,0a3.69,3.69,0,0,0,1.9,4l0,.08A3.81,3.81,0,0,1,24.44,10.45Z"/><path class="cls-4" d="M18.24,18.9l.21.11c-.15,1.16-.17,1.76-.39,2.88l-.2-.1C18.06,20.67,18.08,20.07,18.24,18.9Z"/><path class="cls-4" d="M15.73,17.69l.07,0A4.21,4.21,0,0,0,18,21.77v.07A4.3,4.3,0,0,1,15.73,17.69Z"/><path class="cls-4" d="M25.52,26.52a.75.75,0,0,1,.2.89.5.5,0,0,1-.72.26.71.71,0,0,1-.21-.87A.51.51,0,0,1,25.52,26.52ZM25,27.6a.43.43,0,0,0,.64-.23.66.66,0,0,0-.18-.78.44.44,0,0,0-.64.25A.61.61,0,0,0,25,27.6Z"/><path class="cls-4" d="M31.94,18.24a1.1,1.1,0,0,1,.32,1.07c-.1.37-.39.49-.66.27a1.12,1.12,0,0,1-.33-1.07C31.36,18.14,31.67,18,31.94,18.24Zm-.32,1.27c.24.19.5.08.58-.24a1,1,0,0,0-.28-.95c-.24-.2-.51-.09-.6.24A1,1,0,0,0,31.62,19.51Z"/><path class="cls-4" d="M16.13,22.16a.86.86,0,0,1,.44.94.52.52,0,0,1-.74.37.85.85,0,0,1-.42-.93A.48.48,0,0,1,16.13,22.16Zm-.28,1.24a.45.45,0,0,0,.65-.33.77.77,0,0,0-.38-.83.44.44,0,0,0-.65.33A.8.8,0,0,0,15.85,23.4Z"/><path class="cls-4" d="M25,14.54a.92.92,0,0,1,.48,1,.51.51,0,0,1-.74.4.9.9,0,0,1-.49-.95A.53.53,0,0,1,25,14.54Zm-.25,1.29a.46.46,0,0,0,.66-.36.82.82,0,0,0-.43-.85.47.47,0,0,0-.66.37A.79.79,0,0,0,24.73,15.83Z"/><path class="cls-4" d="M20.48,17.65a1,1,0,0,1,.52,1,.48.48,0,0,1-.71.4,1,1,0,0,1-.52-1A.48.48,0,0,1,20.48,17.65Zm-.18,1.29a.42.42,0,0,0,.62-.35.86.86,0,0,0-.45-.86.43.43,0,0,0-.63.35A.86.86,0,0,0,20.3,18.94Z"/><path class="cls-4" d="M17.55,10.33a.87.87,0,0,1,.47.93.52.52,0,0,1-.75.39.87.87,0,0,1-.47-.94A.52.52,0,0,1,17.55,10.33Zm-.27,1.24a.46.46,0,0,0,.67-.34.79.79,0,0,0-.42-.83.46.46,0,0,0-.66.35A.76.76,0,0,0,17.28,11.57Z"/></g><polygon class="cls-6" points="14.02 19.55 14.05 12.92 9.74 9.38 7.92 16.16 14.02 19.55"/><path class="cls-6" d="M12.35,16l1.27-.19a3,3,0,0,0,2.13-1.43c.84-1.38,2-3.7,1.63-5.68-.51-3.07-2-4.13-5-3.87S7.89,6.8,7.92,10s.9,3,.9,3Z"/><path d="M17.44,9.62l-1.88,1.54-.86,1.46-.63.54-.46.91a1.66,1.66,0,0,1-2,.83,6.57,6.57,0,0,1-3.23-2.17s-.89-1-.59-3.82a4.66,4.66,0,0,1,3.1-4.2c.83-.21,5.21-1.06,6.8,1.28C19.48,8.58,17.44,9.62,17.44,9.62Z"/><path class="cls-6" d="M14.65,11.4a.54.54,0,0,0-.42.11,1.39,1.39,0,0,0-.28.35,3.52,3.52,0,0,0-.49,1.62,1.1,1.1,0,0,0,0,.44.43.43,0,0,0,.71.19,1.1,1.1,0,0,0,.26-.34C14.72,13.35,15.67,11.61,14.65,11.4Z"/><path class="cls-6" d="M30.72,29.4l2.57-.48,1.22-1.86,2-1.13c.41-.31.6.32.17.74l-.83.71.4.84.79-.55.21-.72.4,1-.17.74.14.49-.15.65,0,.46-.42.34.05.35-.38.39L35.57,32l-2.39-.36-2.45-.32Z"/><path class="cls-7" d="M0,22l.44,4.76a3.54,3.54,0,0,0,1.63,2.67c1.38.89,3.34.86,4.76.9a9.61,9.61,0,0,1,1.06.08L8.32,25,4.45,14.46C1.4,15.1,0,17.67,0,22Z"/><path class="cls-8" d="M2.07,29.39c1.38.89,3.34.86,4.76.9V27.23l-4.67-5Z"/><path d="M14,71.43c2.26.47,2.62,2.23,1.76,3.76l-2.54,3.6c-1,1.66-2.24,2.44-3.92,2.16A2,2,0,0,1,8,78.16l.63-1.91,1-5.21Z"/><path class="cls-9" d="M7.47,76.08c.7,2.39,5.33,2.31,5.63-.9L14.36,66l.27-3.73,2.56-8.81.55-4.34L15.93,38l-9.47-.44S7.78,58.44,7.79,59.21C6.47,63.4,7.16,70.6,7.47,76.08Z"/><path d="M14,79.74c-.92,1.54-.5,4.12,0,5.29,1.6.6,2.93.71,3.86.08,3-.18,4.7.22,6.25-.22s2.78-1,3.62-2.61A1.78,1.78,0,0,0,26.33,80c-2.51-.1-4.76-.31-6-.92l-2.14-3.91-3.88,3.06Z"/><path class="cls-10" d="M14.86,55.69a40.46,40.46,0,0,1-.31,5.36c-2.07,6.36-2.15,14-2,20,1.62,2.58,7.24,1.65,7.66-.76l1.06-8.07s0-.06,0-.15l0-.26.37-2.85,1.1-7c.79-6-.46-19.42-.79-24.33l-9.34-1.1a.28.28,0,0,1,0,.13c-.18,1.28-6,1.75-6.05,3.06-.14,3,2.07,9.49,7.57,10a.36.36,0,0,0,.14,0C14.55,51.74,14.74,53.91,14.86,55.69Z"/><path class="cls-11" d="M22,37.58l-4.51-.53,1,2.7c.4-.61.76,2.29.76,2.3,3.68,8.72,2.08,29.52,2.06,30.09l0-.12,0-.26.37-2.85,1.1-7C23.57,55.93,22.32,42.49,22,37.58Z"/><path class="cls-7" d="M6.08,32.43c.31,1.6.38,6.92.38,6.92,3.32,3.24,8.6,4.57,12.74,2.7a5.85,5.85,0,0,0,3.14-3.37A41.36,41.36,0,0,0,20.4,25.57a13.19,13.19,0,0,0-2.33-4.39L11.4,16.72a38.81,38.81,0,0,0-6.21-2.25C1.93,14.21.5,18.65,2,23.14,2,23.14,5.77,30.84,6.08,32.43Z"/><path class="cls-8" d="M13.4,27.15c.54,10,6.36,7.59,5.8,14.9a5.85,5.85,0,0,0,3.14-3.37A41.36,41.36,0,0,0,20.4,25.57Z"/><path class="cls-7" d="M23.68,28.68l9.37.12c1.54.48,1.61,3.48-.5,4A71.61,71.61,0,0,1,23.39,34c-3.12-.2-5.52-2.42-10-6.87-.88-4.7,2.75-7.74,5.4-5.19Z"/></g></g></g></svg>