<svg xmlns="http://www.w3.org/2000/svg" viewBox="0 0 57.75 89.75"><defs><style>.cls-1{isolation:isolate;}.cls-2{fill:#f45157;}.cls-3{fill:#f5e8d9;}.cls-11,.cls-12,.cls-3,.cls-7,.cls-9{mix-blend-mode:multiply;}.cls-4{fill:#f79974;}.cls-5{fill:#10304d;}.cls-6{fill:#214b71;}.cls-7{fill:#162b35;}.cls-11,.cls-7,.cls-9{opacity:0.5;}.cls-8{fill:#c00a15;}.cls-9{fill:#ffb294;}.cls-10{fill:#1390ba;}.cls-11{fill:#167f9c;}.cls-12{fill:#534741;opacity:0.75;}.cls-13{fill:#f74d40;}.cls-14{fill:#fff1db;}</style></defs><g class="cls-1"><g id="Layer_2" data-name="Layer 2"><g id="Layer_2-2" data-name="Layer 2"><path class="cls-2" d="M39.56,12.09c-1.8.08-2.59-1.22-3.57.75l-3.18,9.89L30,23.49v4.06l.12,0a14.36,14.36,0,0,0,4.17.48C39.72,28.47,40,16.58,40,16.58Z"/><path class="cls-3" d="M40,16.58s-.27,11.89-5.74,11.48a14.36,14.36,0,0,1-4.17-.48l4.07-1c.2-4.65,2.3-12,5.41-14.45Z"/><path class="cls-4" d="M34.69,70.75a5.77,5.77,0,0,0,3.89-2.85A4.68,4.68,0,0,0,42,67.57c0,.06,0,.11,0,.17.93,1.22,1.41,2.44.5,3.6l-2.75,0-2.73,1.8-2.95-.06C33.75,72.07,33.53,71.13,34.69,70.75Z"/><path class="cls-2" d="M42.31,68.12a3.67,3.67,0,0,1,1,4.16c-.91,1.36-2.86.46-4.19.84-3.06.87-3.07,1.62-4.53,1.58-2.38,0-3.94-1.11-3.82-1.93.11-.67,1.13-1.35,2.81-2l2.69-.69a7.73,7.73,0,0,1-1.61.67c-.85.58-.55,1.19.24,1.94.88.4,2,0,3.4-.77l3.05-1.52A2,2,0,0,0,42.31,68.12Z"/><path class="cls-4" d="M53.31,70a1.28,1.28,0,0,0,0,.19,6.22,6.22,0,0,1,.31,3.21s-2,3.24-2.05,3.4a20,20,0,0,1-2.78.86l-.86-2.24c1.16-1.15,1.41-2.48,1.85-4.34A3.9,3.9,0,0,0,53.31,70Z"/><path class="cls-2" d="M53.32,70.23c1,.82.92,2.48.71,3.72-.45,1-1.09,1.61-1.84,3.08l-.7,1c-1.39,1.23-3.9,1.39-4.78.74-.57-1.06.12-2.09,1.83-3.93-.65,1.41.1,2.09,1.79,1.9.81-.16,1.35-1.29,2.23-2.83S53.91,71.31,53.32,70.23Z"/><path class="cls-5" d="M37.94,68.4c1-2.39-1.66-12.18-2.31-18a126.14,126.14,0,0,1,5.79-20.7l6,7.23a67.38,67.38,0,0,1-5.9,15.29c3.32,5.07,1.74,12.93,2.09,15.93A6.62,6.62,0,0,1,37.94,68.4Z"/><path class="cls-6" d="M55,70.22a3,3,0,0,1-1.46,1.5,4,4,0,0,1-4.32-.39c1.2-5.11-.55-12.2-2-16.55C45.94,50.84,45.49,45.89,45,41c-2.29-2.25-4.62-5-4.32-8.86C40,27.55,52,25.3,53.73,30.86c1.49,3.63.78,6.39-.35,9.58-.17,5.19,0,8.74-.17,12.93C56.78,60.68,54.53,64.84,55,70.22Z"/><path class="cls-7" d="M55,70.22a3,3,0,0,1-1.46,1.5A27.53,27.53,0,0,0,51.72,53.6s-.72-5.67-2.43-8.31c-.76-1.15-.11-2.28-.14-2.85-.07-.93-.9-.91-.62-1.56a4.64,4.64,0,0,1,1.07-1.73,1.6,1.6,0,0,0,.07-2.3,7.22,7.22,0,0,0-2.55-1.57l6.61-4.42c1.49,3.63.78,6.39-.35,9.58-.17,5.19,0,8.74-.17,12.93C56.78,60.68,54.53,64.84,55,70.22Z"/><path class="cls-2" d="M54.41,31.59a22.32,22.32,0,0,1-2.57,1.89l-.06,0a10.2,10.2,0,0,1-5.89,1.79,7.21,7.21,0,0,1-5.56-3.42,11.06,11.06,0,0,0-.45-5.72.61.61,0,0,0-.05-.12l0-.05a.59.59,0,0,0,0-.08l0-.05a2.59,2.59,0,0,1-.73,0,5.07,5.07,0,0,1-1.23-.36,3.75,3.75,0,0,1-2.13-2.4,5.94,5.94,0,0,1,.54-3.37,6.67,6.67,0,0,0,.21-4.21c-.72-2.65-.69-5.13,2.18-6.43,0,0,11.63,1.73,13.55,6.6.76,1.94-.21,3.41-.35,5.05,0,.39-.06.81-.08,1.23a17.41,17.41,0,0,0,.08,3.29A18.07,18.07,0,0,0,54.41,31.59Z"/><path class="cls-8" d="M54.41,31.59a17.37,17.37,0,0,1-2.57,1.89l-.06,0a10.2,10.2,0,0,1-5.89,1.79,7.21,7.21,0,0,1-5.56-3.42,11.06,11.06,0,0,0-.45-5.72.61.61,0,0,0-.05-.12,3.73,3.73,0,0,0,4.08,1.73c5.34-.93,2.4-9.38,4.71-10.9,1.23-.14,1.87.51,2.83,3.27A5.31,5.31,0,0,0,51.68,22a17.41,17.41,0,0,0,.08,3.29A18.07,18.07,0,0,0,54.41,31.59Z"/><path class="cls-4" d="M38.76,11.89s.35,3.7,2.06,3.89,4.63-5.47,4.63-5.47L42.1,8.14Z"/><path class="cls-9" d="M43.23,10.78c.37,4.39-.42,7.94-2.55,7.43-1.74-.43-1.82-4.84-1.82-4.84L39.09,11Z"/><path d="M36.72,3s-5.74,4.7-.08,8.68l2.12-5.23Z"/><path class="cls-4" d="M40.17,2.53a5.88,5.88,0,0,0-4.6,4.63s-.64,1.49.88,3.78c0,0,.89,3.16,2.82,3.58a4.49,4.49,0,0,0,2.8-1.63c1.42-2.16,1-2.64,1-2.64a4.75,4.75,0,0,0,1-4.84A4.06,4.06,0,0,0,40.17,2.53Z"/><path d="M35.44,8.86s4,1.85,6-.21a1.3,1.3,0,0,0,1.33,1.13l.31.47,1.07,3.18a9.08,9.08,0,0,0,1.51-9.06S44.12-.06,38.77,1.72C35.07,3,34.07,7.18,35.44,8.86Z"/><path class="cls-4" d="M43.59,8.67a.83.83,0,0,1,.52.74,2.31,2.31,0,0,1-.16.93,1.64,1.64,0,0,1-.24.52.53.53,0,0,1-.51.19c-.41-.12-.73-.93-.68-1.34S43,8.47,43.59,8.67Z"/><path class="cls-4" d="M54.64,37.36l-.37,1.16-.6,2.81L52.84,43l-1.1,1.41c-.18.28-.49.28-.44.06l-.46.61c-.33.44-.59.23-.38-.22l1.16-2.29-1.44,2.2c-.28.41-.59.19-.36-.26l1.27-2.6-1.32,1.76c-.35.46-.67.33-.41-.23L51.07,40l-1.18.76-.67.32c-.44.19-.59-.23-.15-.53l.53-.43.74-1,2.34-1.27,1-1.45Z"/><path class="cls-2" d="M48.52,19.91l5.45,7L52.1,38.45a1.83,1.83,0,0,0,2.32.9s3.85-10.28,3.27-13.07S51.36,14.5,51.36,14.5C47.48,14.52,46.44,17.37,48.52,19.91Z"/><path class="cls-3" d="M39.72,25.87a2.59,2.59,0,0,1-.73,0,5.07,5.07,0,0,1-1.23-.36,1.81,1.81,0,0,0,1.87-1.26A2.92,2.92,0,0,0,39.72,25.87Z"/><path class="cls-6" d="M19,9c3-.49,7.48,6.63,11.43,11l7.69,5.46A40.53,40.53,0,0,1,37.36,30c-.18,0-10.42-4.7-10.42-4.7L14.81,15.46Z"/><path d="M20,72.21c-.49.64-.48,2.11-.37,3.78.45,1.68,2,1.55,3.41,1.77,2.62.41,3.93,2.38,7.43,2.38,2.08,0,3.46-.45,3.9-1.77a2.27,2.27,0,0,0-1-1.85s-4.76-2.13-4.88-2.21a25.82,25.82,0,0,1-2.3-1.81c0-.16-.82-3.82-.82-3.82H20.17Z"/><path class="cls-10" d="M26.58,72.91c-2.12,1.27-5,2.41-6.29,1.83a1.07,1.07,0,0,1-.65-.81c-.13-.58-.25-1.17-.37-1.76-1.13-5.6-1.67-11-.64-15.65L16,47.63,16,47.4l-.58-2-.07-.24c-.05-5.41,2.2-7.38,6.11-6.85l.68.12.52.11.77.21.51,3.13,2.2,13.46C26.74,60.56,25.68,68.37,26.58,72.91Z"/><path class="cls-11" d="M20.29,74.74a1.07,1.07,0,0,1-.65-.81c-.13-.58-.25-1.17-.37-1.76-1.13-5.6-1.67-11-.64-15.65L16,47.63,16,47.4c-.14.79-.4,2.08-.5,2.66s-.22,1.22-.34,1.84l-.32-5.77.58-.72L19,40.84c-.07.82-.11,1.63-.13,2.46a60.08,60.08,0,0,0,1.43,13.27C18.92,61.1,19.62,67.93,20.29,74.74Z"/><path d="M4.41,80.18A5.15,5.15,0,0,0,4,83.26a15.84,15.84,0,0,1,.69,1.68C5,86,5,87.65,6.49,88.67c1.8,1.42,5.28,1.48,6.37,0a8,8,0,0,0-1.4-3.7L9.7,81.66l.11-3.08L4.73,77.47Z"/><path class="cls-10" d="M21.56,37.09a7.13,7.13,0,0,1-.14,1.23c-.05.23-.11.47-.18.7a13.1,13.1,0,0,1-2.38,4.28A32.9,32.9,0,0,0,16,47a3,3,0,0,0-.07.4c-.14.79-.4,2.08-.5,2.66s-.22,1.22-.34,1.84c-.76,4-1.69,8.14-2.75,12.51a83,83,0,0,0-2.18,17.25,5.49,5.49,0,0,1-5.27-.25,2.63,2.63,0,0,1-1-1.28c0-2.45,0-4.95.09-7.29.12-4.85.46-9,1.53-10.89V37.64l2.25-.27,1.34-.15,8.21-1,.87-.09.46-.06,2-.23Z"/><path class="cls-6" d="M28,42l-7.46,5.59-.67.5-1.55.17-5.09.54A10.67,10.67,0,0,1,7,47.55,9.91,9.91,0,0,1,6,46.88l-.39-.27L3.85,45.4c0-.33,1.3-11.58,1.35-12.32,0,0-.38-5.15-.38-5.15l-.07-.84L3.94,16.37a40.64,40.64,0,0,1,8.62-7.06l6.5.32c2.31,1.66,2.79,3.08,3.48,7,0,0,1.29,8.14,2,13.32.23,1.67,2.53,9,3.24,11.3C27.9,41.7,28,42,28,42Z"/><path class="cls-12" d="M19.2,23.28c.38-7.47.34-9.11-.64-10.74l-2-.54-4.17-.21C14.44,15.21,16.84,17,19.2,23.28Z"/><path class="cls-11" d="M8.4,62.27C5.7,66.26,5,73.41,4.92,81.41a2.63,2.63,0,0,1-1-1.28c0-2.46,0-4.95.09-7.29.12-4.85.46-9,1.53-10.89V46.61l.39.27A9.91,9.91,0,0,0,7,47.55,57.29,57.29,0,0,0,8.4,62.27Z"/><path class="cls-7" d="M28,42l-7.46,5.59c-.77.23-1.53.45-2.22.67l-5.09.54A10.67,10.67,0,0,1,7,47.55,9.91,9.91,0,0,1,6,46.88l-.39-.27L3.85,45.4c0-.33,1.3-11.58,1.35-12.32,0,0-.38-5.15-.38-5.15l4.1-4.1A9.55,9.55,0,0,0,11.53,31L19,33.62l-.3,2.49-.05.33c-.42-.07-.85-.12-1.27-.18-3.54-.42,1.92.65-.63,2,6.25.49,9.43,1.77,11,3C27.9,41.7,28,42,28,42Z"/><path class="cls-4" d="M13.25,6.27,11.88,8.68c-1.1,2.92,2.38,5.36,4.52,5l2.16-3.89Z"/><path class="cls-9" d="M13.46,9.27a8.39,8.39,0,0,0,.71,4c1.6,2.9,2.91.75,3.58-.19Z"/><path class="cls-4" d="M13.37,8.6a6.47,6.47,0,0,0,3,5.26,1.51,1.51,0,0,0,1.89,0L20,11.39a6.56,6.56,0,0,0,1.5-2.59L18.83,3.22h-4.2L12.63,6Z"/><path d="M12.31,8.12,14,8.47a1.44,1.44,0,0,1,1.81-.14,6.38,6.38,0,0,0,4,1.27,2.91,2.91,0,0,0,2.86-3.18c-.12-1.6-2.82-5.21-5.93-5-3.69.25-6.12,2.51-4.78,7.12Z"/><path class="cls-4" d="M13,6.29a.7.7,0,0,0-.73.26,1,1,0,0,0-.13.57,3,3,0,0,0,.29,1.23,1.35,1.35,0,0,0,.31.43.62.62,0,0,0,.49.17c.64-.09.52-.9.58-1.34A1.22,1.22,0,0,0,13,6.29Z"/><path class="cls-9" d="M15,7.47c.14,2.57,1.49,5,4.12,5.14L21.82,9l-1-2.43Z"/><path class="cls-8" d="M12.87,2.63a2,2,0,0,0-2,1.61c-.32,1.06.77,3.22,3.69,5.11s6.44,3,8.06,2.12c2.23-1.26.51-3.38.51-3.38L17.16,3.26Z"/><path class="cls-13" d="M13,2.29a2,2,0,0,0-2,1.62C10.62,5,11.7,7.13,14.63,9s6.43,3,8,2.12c2.23-1.26.52-3.38.52-3.38L17.26,2.93Z"/><path class="cls-8" d="M23.2,7.61a.66.66,0,0,1,0,.14,1.21,1.21,0,0,1-.06.38A2.69,2.69,0,0,1,21.2,9.79l-.06,0a5.68,5.68,0,0,1-2.66.11A8.41,8.41,0,0,1,15.92,9l-.77-.48c-.19-.12-.38-.26-.58-.4s-.52-.38-.78-.58-.58-.49-.85-.74a.94.94,0,0,1-.1-.1,4.08,4.08,0,0,1-.36-.36,8.48,8.48,0,0,1-.56-.69,2.78,2.78,0,0,1-.58-1.5,6,6,0,0,1,.53-1.3,4.36,4.36,0,0,1,.24-.41A5.57,5.57,0,0,1,13.55.91,5,5,0,0,1,15.11.18,6,6,0,0,1,16.86,0a7.7,7.7,0,0,1,3.35.83,5.53,5.53,0,0,1,1.25.94C23.69,4,23.2,7.61,23.2,7.61Z"/><path class="cls-6" d="M3.94,16.37c-3,4-2.87,10-3.89,14.76-.48,3.49,2.15,3.92,13.67,6.93,1.58.32,2.31-.62.94-3L6.46,30l2.46-6.14C9.39,18.26,7.67,15.87,3.94,16.37Z"/><polygon class="cls-14" points="19.2 26.11 33.27 24.58 42.72 17.64 40.06 34.43 40.06 41.28 32.16 46.79 18.13 50.65 18.89 36.34 19.2 26.11"/><path class="cls-4" d="M23.9,38.15l-2.43.16-2.58-2c0-1,0-1.63.06-2.08l-1.15-.08a28,28,0,0,0-3.14.85l-.36-.11c-.93-.1-1.53,2.95-.58,3.14l1.6.41L18,40a11.34,11.34,0,0,0,3.3.53l.76-.33.59-.4.56-.55,1-.3C24.76,38.79,24.76,38.15,23.9,38.15Z"/><path class="cls-4" d="M41.12,27.43l-.94,1.05A.81.81,0,0,0,40,29v.66l-.69.84v.68l.27.35a.76.76,0,0,0,.89.24l.86-.37,1-2.53a1.09,1.09,0,0,0,0-.83l-.83-1.73Z"/><path class="cls-13" d="M17.91,9.93l.4-1.08,1,.14v1.19Z"/><polygon class="cls-13" points="11.84 5.82 12.63 6.64 13.18 5.61 12.59 5.01 11.84 5.82"/><polygon class="cls-13" points="23.1 8.22 23.1 7.03 23.25 6.87 23.37 7.02 23.37 8 23.25 8.29 23.1 8.22"/><path class="cls-13" d="M19.29,6.87A6.94,6.94,0,0,0,19,5.76a9.47,9.47,0,0,0-.4-1,7.22,7.22,0,0,0-1.16-1.88,5.19,5.19,0,0,0-1.73-1.31,7.42,7.42,0,0,0-2.17-.6,5.12,5.12,0,0,1,2.32.24,4.63,4.63,0,0,1,2,1.34A6,6,0,0,1,19,4.57,5.83,5.83,0,0,1,19.29,6.87Z"/><path class="cls-13" d="M21.07,5.82a5.87,5.87,0,0,0-.3-1.09,9.47,9.47,0,0,0-.43-1,7,7,0,0,0-1.24-1.8A5,5,0,0,0,17.3.69,8.65,8.65,0,0,0,15.11.18l.58,0a2.82,2.82,0,0,1,.58,0,5.13,5.13,0,0,1,1.16.2,5.52,5.52,0,0,1,1.09.47,6.19,6.19,0,0,1,.94.75,5.7,5.7,0,0,1,1.24,2A5.42,5.42,0,0,1,21.07,5.82Z"/><path class="cls-13" d="M22.16,5a7.56,7.56,0,0,0-.28-1.09,9.47,9.47,0,0,0-.4-1A7.22,7.22,0,0,0,20.32,1L20.21.84a5.53,5.53,0,0,1,1.25.94,6.31,6.31,0,0,1,.39.93A5.73,5.73,0,0,1,22.16,5Z"/></g></g></g></svg>